<svg width="141" height="19" viewBox="0 0 141 19" fill="none" xmlns="http://www.w3.org/2000/svg">
<path d="M5.52 2.736L9.072 2.256L7.368 10.272C8.136 10.208 8.84 9.872 9.48 9.264C10.136 8.656 10.648 7.904 11.016 7.008C11.384 6.112 11.568 5.232 11.568 4.368C11.568 3.408 11.32 2.624 10.824 2.016C10.328 1.408 9.584 1.104 8.592 1.104C6.64 1.104 5.112 1.616 4.008 2.64C2.92 3.664 2.376 5.096 2.376 6.936C2.376 7.528 2.432 7.944 2.544 8.184C2.656 8.408 2.712 8.536 2.712 8.568C1.848 8.568 1.2 8.392 0.768 8.04C0.352 7.672 0.144 7.072 0.144 6.24C0.144 5.216 0.56 4.224 1.392 3.264C2.24 2.288 3.32 1.504 4.632 0.912C5.944 0.303999 7.256 -1.43051e-06 8.568 -1.43051e-06C9.832 -1.43051e-06 10.888 0.215999 11.736 0.647999C12.584 1.08 13.208 1.656 13.608 2.376C14.024 3.08 14.232 3.864 14.232 4.728C14.232 5.768 13.944 6.784 13.368 7.776C12.808 8.768 12 9.584 10.944 10.224C9.888 10.848 8.672 11.16 7.296 11.16H7.176L5.712 18H2.256L5.52 2.736ZM17.7658 4.704C17.2378 4.704 16.7898 4.52 16.4218 4.152C16.0538 3.784 15.8698 3.336 15.8698 2.808C15.8698 2.28 16.0538 1.832 16.4218 1.464C16.7898 1.08 17.2378 0.887999 17.7658 0.887999C18.2938 0.887999 18.7418 1.08 19.1098 1.464C19.4938 1.832 19.6858 2.28 19.6858 2.808C19.6858 3.336 19.4938 3.784 19.1098 4.152C18.7418 4.52 18.2938 4.704 17.7658 4.704ZM16.1338 18.144C15.3658 18.144 14.7418 17.904 14.2618 17.424C13.7978 16.944 13.5658 16.224 13.5658 15.264C13.5658 14.864 13.6298 14.344 13.7578 13.704L15.3898 6H18.8458L17.1178 14.16C17.0538 14.4 17.0218 14.656 17.0218 14.928C17.0218 15.248 17.0938 15.48 17.2378 15.624C17.3978 15.752 17.6538 15.816 18.0058 15.816C18.2938 15.816 18.5498 15.768 18.7738 15.672C18.7098 16.472 18.4218 17.088 17.9098 17.52C17.4138 17.936 16.8218 18.144 16.1338 18.144ZM24.8938 7.296H23.5498C23.1018 7.296 22.7658 7.32 22.5418 7.368C22.3338 7.416 22.2298 7.52 22.2298 7.68C22.2298 7.712 22.2698 7.752 22.3498 7.8C22.4458 7.832 22.4938 7.968 22.4938 8.208C22.4938 8.624 22.3658 8.944 22.1098 9.168C21.8538 9.376 21.5498 9.48 21.1978 9.48C20.8938 9.48 20.6298 9.392 20.4058 9.216C20.1978 9.024 20.0938 8.76 20.0938 8.424C20.0938 8.088 20.2058 7.728 20.4298 7.344C20.6698 6.96 20.9978 6.64 21.4138 6.384C21.8458 6.128 22.3338 6 22.8778 6H29.0458L23.1658 16.152C23.2618 16.152 23.4378 16.168 23.6938 16.2C24.2378 16.264 24.6698 16.296 24.9898 16.296C25.6778 16.296 26.0538 16.136 26.1178 15.816C25.9738 15.8 25.8618 15.752 25.7818 15.672C25.7018 15.576 25.6618 15.456 25.6618 15.312C25.6618 15.056 25.7818 14.824 26.0218 14.616C26.2618 14.392 26.5898 14.28 27.0058 14.28C27.3578 14.28 27.6218 14.384 27.7978 14.592C27.9738 14.8 28.0618 15.08 28.0618 15.432C28.0618 15.816 27.9418 16.208 27.7018 16.608C27.4618 17.008 27.1178 17.344 26.6698 17.616C26.2218 17.872 25.7098 18 25.1338 18H18.7738L24.8938 7.296ZM35.1591 7.296H33.8151C33.3671 7.296 33.0311 7.32 32.8071 7.368C32.5991 7.416 32.4951 7.52 32.4951 7.68C32.4951 7.712 32.5351 7.752 32.6151 7.8C32.7111 7.832 32.7591 7.968 32.7591 8.208C32.7591 8.624 32.6311 8.944 32.3751 9.168C32.1191 9.376 31.8151 9.48 31.4631 9.48C31.1591 9.48 30.8951 9.392 30.6711 9.216C30.4631 9.024 30.3591 8.76 30.3591 8.424C30.3591 8.088 30.4711 7.728 30.6951 7.344C30.9351 6.96 31.2631 6.64 31.6791 6.384C32.1111 6.128 32.5991 6 33.1431 6H39.3111L33.4311 16.152C33.5271 16.152 33.7031 16.168 33.9591 16.2C34.5031 16.264 34.9351 16.296 35.2551 16.296C35.9431 16.296 36.3191 16.136 36.3831 15.816C36.2391 15.8 36.1271 15.752 36.0471 15.672C35.9671 15.576 35.9271 15.456 35.9271 15.312C35.9271 15.056 36.0471 14.824 36.2871 14.616C36.5271 14.392 36.8551 14.28 37.2711 14.28C37.6231 14.28 37.8871 14.384 38.0631 14.592C38.2391 14.8 38.3271 15.08 38.3271 15.432C38.3271 15.816 38.2071 16.208 37.9671 16.608C37.7271 17.008 37.3831 17.344 36.9351 17.616C36.4871 17.872 35.9751 18 35.3991 18H29.0391L35.1591 7.296ZM42.1847 18.144C41.2727 18.144 40.5127 17.832 39.9047 17.208C39.2967 16.584 38.9927 15.608 38.9927 14.28C38.9927 13.096 39.2247 11.856 39.6887 10.56C40.1687 9.248 40.8727 8.144 41.8007 7.248C42.7447 6.336 43.8647 5.88 45.1607 5.88C45.8167 5.88 46.3047 5.992 46.6247 6.216C46.9447 6.44 47.1047 6.736 47.1047 7.104V7.272L47.3687 6H50.8247L49.0967 14.16C49.0327 14.4 49.0007 14.656 49.0007 14.928C49.0007 15.248 49.0727 15.48 49.2167 15.624C49.3767 15.752 49.6327 15.816 49.9847 15.816C50.2087 15.816 50.3847 15.784 50.5127 15.72C50.1607 16.616 49.8247 17.248 49.5047 17.616C49.1847 17.968 48.7207 18.144 48.1127 18.144C47.4567 18.144 46.9207 17.952 46.5047 17.568C46.1047 17.168 45.8567 16.616 45.7607 15.912C44.7847 17.4 43.5927 18.144 42.1847 18.144ZM43.7447 15.816C44.1447 15.816 44.5367 15.632 44.9207 15.264C45.3207 14.88 45.5927 14.36 45.7367 13.704L46.8887 8.28C46.8887 8.072 46.8087 7.872 46.6487 7.68C46.4887 7.472 46.2407 7.368 45.9047 7.368C45.2647 7.368 44.6887 7.744 44.1767 8.496C43.6647 9.232 43.2647 10.128 42.9767 11.184C42.6887 12.224 42.5447 13.144 42.5447 13.944C42.5447 14.744 42.6567 15.256 42.8807 15.48C43.1207 15.704 43.4087 15.816 43.7447 15.816ZM61.2309 2.736L64.7829 2.256L63.0789 10.272C63.8469 10.208 64.5509 9.872 65.1909 9.264C65.8469 8.656 66.3589 7.904 66.7269 7.008C67.0949 6.112 67.2789 5.232 67.2789 4.368C67.2789 3.408 67.0309 2.624 66.5349 2.016C66.0389 1.408 65.2949 1.104 64.3029 1.104C62.3509 1.104 60.8229 1.616 59.7189 2.64C58.6309 3.664 58.0869 5.096 58.0869 6.936C58.0869 7.528 58.1429 7.944 58.2549 8.184C58.3669 8.408 58.4229 8.536 58.4229 8.568C57.5589 8.568 56.9109 8.392 56.4789 8.04C56.0629 7.672 55.8549 7.072 55.8549 6.24C55.8549 5.216 56.2709 4.224 57.1029 3.264C57.9509 2.288 59.0309 1.504 60.3429 0.912C61.6549 0.303999 62.9669 -1.43051e-06 64.2789 -1.43051e-06C65.5429 -1.43051e-06 66.5989 0.215999 67.4469 0.647999C68.2949 1.08 68.9189 1.656 69.3189 2.376C69.7349 3.08 69.9429 3.864 69.9429 4.728C69.9429 5.768 69.6549 6.784 69.0789 7.776C68.5189 8.768 67.7109 9.584 66.6549 10.224C65.5989 10.848 64.3829 11.16 63.0069 11.16H62.8869L61.4229 18H57.9669L61.2309 2.736ZM72.3488 18.144C71.4368 18.144 70.6768 17.832 70.0688 17.208C69.4607 16.584 69.1567 15.608 69.1567 14.28C69.1567 13.096 69.3888 11.856 69.8528 10.56C70.3328 9.248 71.0368 8.144 71.9648 7.248C72.9088 6.336 74.0288 5.88 75.3248 5.88C75.9808 5.88 76.4688 5.992 76.7888 6.216C77.1088 6.44 77.2688 6.736 77.2688 7.104V7.272L77.5328 6H80.9888L79.2608 14.16C79.1968 14.4 79.1648 14.656 79.1648 14.928C79.1648 15.616 79.4928 15.96 80.1488 15.96C80.5968 15.96 80.9808 15.752 81.3008 15.336C81.6368 14.92 81.9008 14.376 82.0928 13.704H83.1008C82.5088 15.432 81.7728 16.608 80.8928 17.232C80.0288 17.84 79.1568 18.144 78.2768 18.144C77.6048 18.144 77.0608 17.96 76.6448 17.592C76.2448 17.208 76.0048 16.656 75.9248 15.936C75.4608 16.592 74.9408 17.128 74.3648 17.544C73.8048 17.944 73.1328 18.144 72.3488 18.144ZM73.9088 15.816C74.3088 15.816 74.7008 15.632 75.0848 15.264C75.4848 14.88 75.7568 14.36 75.9008 13.704L77.0528 8.28C77.0528 8.072 76.9728 7.872 76.8128 7.68C76.6528 7.472 76.4048 7.368 76.0688 7.368C75.4288 7.368 74.8528 7.744 74.3408 8.496C73.8288 9.232 73.4288 10.128 73.1408 11.184C72.8528 12.224 72.7088 13.144 72.7088 13.944C72.7088 14.744 72.8208 15.256 73.0448 15.48C73.2848 15.704 73.5728 15.816 73.9088 15.816ZM83.7336 6H87.1896L86.8776 7.488C87.4216 7.008 87.9096 6.64 88.3416 6.384C88.7896 6.128 89.2696 6 89.7816 6C90.2936 6 90.6936 6.176 90.9816 6.528C91.2856 6.88 91.4376 7.304 91.4376 7.8C91.4376 8.264 91.2856 8.672 90.9816 9.024C90.6776 9.376 90.2536 9.552 89.7096 9.552C89.3576 9.552 89.1176 9.472 88.9896 9.312C88.8776 9.136 88.7896 8.888 88.7256 8.568C88.6776 8.36 88.6296 8.208 88.5816 8.112C88.5336 8.016 88.4456 7.968 88.3176 7.968C87.9816 7.968 87.6936 8.04 87.4536 8.184C87.2296 8.312 86.9336 8.544 86.5656 8.88L84.6456 18H81.1896L83.7336 6ZM94.005 18.144C93.093 18.144 92.333 17.832 91.725 17.208C91.117 16.584 90.813 15.608 90.813 14.28C90.813 13.096 91.045 11.856 91.509 10.56C91.989 9.248 92.693 8.144 93.621 7.248C94.565 6.336 95.685 5.88 96.981 5.88C97.637 5.88 98.125 5.992 98.445 6.216C98.765 6.44 98.925 6.736 98.925 7.104V7.272L99.189 6H102.645L100.917 14.16C100.853 14.4 100.821 14.656 100.821 14.928C100.821 15.616 101.149 15.96 101.805 15.96C102.253 15.96 102.637 15.752 102.957 15.336C103.293 14.92 103.557 14.376 103.749 13.704H104.757C104.165 15.432 103.429 16.608 102.549 17.232C101.685 17.84 100.813 18.144 99.933 18.144C99.261 18.144 98.717 17.96 98.301 17.592C97.901 17.208 97.661 16.656 97.581 15.936C97.117 16.592 96.597 17.128 96.021 17.544C95.461 17.944 94.789 18.144 94.005 18.144ZM95.565 15.816C95.965 15.816 96.357 15.632 96.741 15.264C97.141 14.88 97.413 14.36 97.557 13.704L98.709 8.28C98.709 8.072 98.629 7.872 98.469 7.68C98.309 7.472 98.061 7.368 97.725 7.368C97.085 7.368 96.509 7.744 95.997 8.496C95.485 9.232 95.085 10.128 94.797 11.184C94.509 12.224 94.365 13.144 94.365 13.944C94.365 14.744 94.477 15.256 94.701 15.48C94.941 15.704 95.229 15.816 95.565 15.816ZM106.638 18.144C105.726 18.144 104.966 17.832 104.358 17.208C103.75 16.584 103.446 15.608 103.446 14.28C103.446 13.096 103.678 11.856 104.142 10.56C104.622 9.248 105.326 8.144 106.254 7.248C107.198 6.336 108.318 5.88 109.614 5.88C110.27 5.88 110.758 5.992 111.078 6.216C111.398 6.44 111.558 6.736 111.558 7.104V7.2L112.734 1.68L116.286 1.2L113.526 14.16C113.462 14.4 113.43 14.656 113.43 14.928C113.43 15.248 113.502 15.48 113.646 15.624C113.806 15.752 114.062 15.816 114.414 15.816C114.862 15.816 115.246 15.624 115.566 15.24C115.902 14.856 116.166 14.344 116.358 13.704H117.366C116.39 16.568 114.782 18 112.542 18C111.886 18 111.35 17.824 110.934 17.472C110.534 17.12 110.286 16.608 110.19 15.936C109.774 16.576 109.27 17.104 108.678 17.52C108.102 17.936 107.422 18.144 106.638 18.144ZM108.198 15.816C108.582 15.816 108.966 15.64 109.35 15.288C109.75 14.936 110.022 14.448 110.166 13.824V13.704L111.342 8.208C111.198 7.648 110.87 7.368 110.358 7.368C109.718 7.368 109.142 7.744 108.63 8.496C108.118 9.232 107.718 10.128 107.43 11.184C107.142 12.224 106.998 13.144 106.998 13.944C106.998 14.744 107.11 15.256 107.334 15.48C107.574 15.704 107.862 15.816 108.198 15.816ZM120.375 4.704C119.847 4.704 119.399 4.52 119.031 4.152C118.663 3.784 118.479 3.336 118.479 2.808C118.479 2.28 118.663 1.832 119.031 1.464C119.399 1.08 119.847 0.887999 120.375 0.887999C120.903 0.887999 121.351 1.08 121.719 1.464C122.103 1.832 122.295 2.28 122.295 2.808C122.295 3.336 122.103 3.784 121.719 4.152C121.351 4.52 120.903 4.704 120.375 4.704ZM118.743 18.144C117.975 18.144 117.351 17.904 116.871 17.424C116.407 16.944 116.175 16.224 116.175 15.264C116.175 14.864 116.239 14.344 116.367 13.704L117.999 6H121.455L119.727 14.16C119.663 14.4 119.631 14.656 119.631 14.928C119.631 15.248 119.703 15.48 119.847 15.624C120.007 15.752 120.263 15.816 120.615 15.816C121.079 15.816 121.511 15.624 121.911 15.24C122.311 14.84 122.599 14.328 122.775 13.704H123.783C123.191 15.432 122.431 16.608 121.503 17.232C120.575 17.84 119.655 18.144 118.743 18.144ZM125.502 18.144C124.734 18.144 124.086 18 123.558 17.712C123.03 17.408 122.638 17.024 122.382 16.56C122.126 16.08 121.998 15.584 121.998 15.072C121.998 14.544 122.126 14.088 122.382 13.704C122.622 13.304 122.918 13.016 123.27 12.84C123.894 11.72 124.438 10.592 124.902 9.456C125.366 8.304 125.806 7.064 126.222 5.736L129.774 5.256C129.854 7.304 129.99 9.52 130.182 11.904C130.262 12.864 130.302 13.56 130.302 13.992C130.302 14.36 130.27 14.664 130.206 14.904C130.958 14.472 131.534 14.072 131.934 13.704H132.942C131.918 14.888 130.694 15.888 129.27 16.704C128.806 17.2 128.23 17.568 127.542 17.808C126.87 18.032 126.19 18.144 125.502 18.144ZM124.734 16.248C125.326 16.248 125.822 16.072 126.222 15.72C126.622 15.368 126.822 14.8 126.822 14.016C126.822 13.536 126.774 12.864 126.678 12C126.518 10.176 126.414 8.952 126.366 8.328C125.982 9.592 125.334 11.104 124.422 12.864C124.79 13.056 124.974 13.336 124.974 13.704C124.974 14.008 124.87 14.28 124.662 14.52C124.47 14.76 124.222 14.88 123.918 14.88C123.582 14.88 123.366 14.776 123.27 14.568C123.27 15.144 123.382 15.568 123.606 15.84C123.846 16.112 124.222 16.248 124.734 16.248ZM135.314 18.144C134.146 18.144 133.234 17.84 132.578 17.232C131.922 16.608 131.594 15.64 131.594 14.328C131.594 13.224 131.81 12.008 132.242 10.68C132.674 9.352 133.378 8.208 134.354 7.248C135.33 6.272 136.57 5.784 138.074 5.784C139.834 5.784 140.714 6.552 140.714 8.088C140.714 8.984 140.458 9.808 139.946 10.56C139.434 11.312 138.754 11.92 137.906 12.384C137.058 12.832 136.154 13.088 135.194 13.152C135.162 13.504 135.146 13.744 135.146 13.872C135.146 15.2 135.642 15.864 136.634 15.864C137.082 15.864 137.562 15.744 138.074 15.504C138.586 15.264 139.05 14.96 139.466 14.592C139.034 16.96 137.65 18.144 135.314 18.144ZM135.362 12C135.97 11.984 136.538 11.784 137.066 11.4C137.61 11.016 138.042 10.528 138.362 9.936C138.698 9.328 138.866 8.696 138.866 8.04C138.866 7.384 138.666 7.056 138.266 7.056C137.706 7.056 137.146 7.568 136.586 8.592C136.042 9.6 135.634 10.736 135.362 12Z" fill="#1E1E1E"/>
</svg>
