<svg width="400" height="300" viewBox="0 0 400 300" fill="none" xmlns="http://www.w3.org/2000/svg">
<rect width="400" height="300" fill="url(#paint0_linear_608_121)"/>
<path d="M92.2 139.56L98.12 138.76L95.28 152.12C96.56 152.013 97.7333 151.453 98.8 150.44C99.8933 149.427 100.747 148.173 101.36 146.68C101.973 145.187 102.28 143.72 102.28 142.28C102.28 140.68 101.867 139.373 101.04 138.36C100.213 137.347 98.9733 136.84 97.32 136.84C94.0667 136.84 91.52 137.693 89.68 139.4C87.8667 141.107 86.96 143.493 86.96 146.56C86.96 147.547 87.0533 148.24 87.24 148.64C87.4267 149.013 87.52 149.227 87.52 149.28C86.08 149.28 85 148.987 84.28 148.4C83.5867 147.787 83.24 146.787 83.24 145.4C83.24 143.693 83.9333 142.04 85.32 140.44C86.7333 138.813 88.5333 137.507 90.72 136.52C92.9067 135.507 95.0933 135 97.28 135C99.3867 135 101.147 135.36 102.56 136.08C103.973 136.8 105.013 137.76 105.68 138.96C106.373 140.133 106.72 141.44 106.72 142.88C106.72 144.613 106.24 146.307 105.28 147.96C104.347 149.613 103 150.973 101.24 152.04C99.48 153.08 97.4533 153.6 95.16 153.6H94.96L92.52 165H86.76L92.2 139.56ZM112.61 142.84C111.73 142.84 110.983 142.533 110.37 141.92C109.756 141.307 109.45 140.56 109.45 139.68C109.45 138.8 109.756 138.053 110.37 137.44C110.983 136.8 111.73 136.48 112.61 136.48C113.49 136.48 114.236 136.8 114.85 137.44C115.49 138.053 115.81 138.8 115.81 139.68C115.81 140.56 115.49 141.307 114.85 141.92C114.236 142.533 113.49 142.84 112.61 142.84ZM109.89 165.24C108.61 165.24 107.57 164.84 106.77 164.04C105.996 163.24 105.61 162.04 105.61 160.44C105.61 159.773 105.716 158.907 105.93 157.84L108.65 145H114.41L111.53 158.6C111.423 159 111.37 159.427 111.37 159.88C111.37 160.413 111.49 160.8 111.73 161.04C111.996 161.253 112.423 161.36 113.01 161.36C113.49 161.36 113.916 161.28 114.29 161.12C114.183 162.453 113.703 163.48 112.85 164.2C112.023 164.893 111.036 165.24 109.89 165.24ZM124.49 147.16H122.25C121.503 147.16 120.943 147.2 120.57 147.28C120.223 147.36 120.05 147.533 120.05 147.8C120.05 147.853 120.116 147.92 120.25 148C120.41 148.053 120.49 148.28 120.49 148.68C120.49 149.373 120.276 149.907 119.85 150.28C119.423 150.627 118.916 150.8 118.33 150.8C117.823 150.8 117.383 150.653 117.01 150.36C116.663 150.04 116.49 149.6 116.49 149.04C116.49 148.48 116.676 147.88 117.05 147.24C117.45 146.6 117.996 146.067 118.69 145.64C119.41 145.213 120.223 145 121.13 145H131.41L121.61 161.92C121.77 161.92 122.063 161.947 122.49 162C123.396 162.107 124.116 162.16 124.65 162.16C125.796 162.16 126.423 161.893 126.53 161.36C126.29 161.333 126.103 161.253 125.97 161.12C125.836 160.96 125.77 160.76 125.77 160.52C125.77 160.093 125.97 159.707 126.37 159.36C126.77 158.987 127.316 158.8 128.01 158.8C128.596 158.8 129.036 158.973 129.33 159.32C129.623 159.667 129.77 160.133 129.77 160.72C129.77 161.36 129.57 162.013 129.17 162.68C128.77 163.347 128.196 163.907 127.45 164.36C126.703 164.787 125.85 165 124.89 165H114.29L124.49 147.16ZM141.598 147.16H139.358C138.612 147.16 138.052 147.2 137.678 147.28C137.332 147.36 137.158 147.533 137.158 147.8C137.158 147.853 137.225 147.92 137.358 148C137.518 148.053 137.598 148.28 137.598 148.68C137.598 149.373 137.385 149.907 136.958 150.28C136.532 150.627 136.025 150.8 135.438 150.8C134.932 150.8 134.492 150.653 134.118 150.36C133.772 150.04 133.598 149.6 133.598 149.04C133.598 148.48 133.785 147.88 134.158 147.24C134.558 146.6 135.105 146.067 135.798 145.64C136.518 145.213 137.332 145 138.238 145H148.518L138.718 161.92C138.878 161.92 139.172 161.947 139.598 162C140.505 162.107 141.225 162.16 141.758 162.16C142.905 162.16 143.532 161.893 143.638 161.36C143.398 161.333 143.212 161.253 143.078 161.12C142.945 160.96 142.878 160.76 142.878 160.52C142.878 160.093 143.078 159.707 143.478 159.36C143.878 158.987 144.425 158.8 145.118 158.8C145.705 158.8 146.145 158.973 146.438 159.32C146.732 159.667 146.878 160.133 146.878 160.72C146.878 161.36 146.678 162.013 146.278 162.68C145.878 163.347 145.305 163.907 144.558 164.36C143.812 164.787 142.958 165 141.998 165H131.398L141.598 147.16ZM153.308 165.24C151.788 165.24 150.521 164.72 149.508 163.68C148.494 162.64 147.988 161.013 147.988 158.8C147.988 156.827 148.374 154.76 149.148 152.6C149.948 150.413 151.121 148.573 152.668 147.08C154.241 145.56 156.108 144.8 158.268 144.8C159.361 144.8 160.174 144.987 160.708 145.36C161.241 145.733 161.508 146.227 161.508 146.84V147.12L161.948 145H167.708L164.828 158.6C164.721 159 164.668 159.427 164.668 159.88C164.668 160.413 164.788 160.8 165.028 161.04C165.294 161.253 165.721 161.36 166.308 161.36C166.681 161.36 166.974 161.307 167.188 161.2C166.601 162.693 166.041 163.747 165.508 164.36C164.974 164.947 164.201 165.24 163.188 165.24C162.094 165.24 161.201 164.92 160.508 164.28C159.841 163.613 159.428 162.693 159.268 161.52C157.641 164 155.654 165.24 153.308 165.24ZM155.908 161.36C156.574 161.36 157.228 161.053 157.868 160.44C158.534 159.8 158.988 158.933 159.228 157.84L161.148 148.8C161.148 148.453 161.014 148.12 160.748 147.8C160.481 147.453 160.068 147.28 159.508 147.28C158.441 147.28 157.481 147.907 156.628 149.16C155.774 150.387 155.108 151.88 154.628 153.64C154.148 155.373 153.908 156.907 153.908 158.24C153.908 159.573 154.094 160.427 154.468 160.8C154.868 161.173 155.348 161.36 155.908 161.36ZM185.052 139.56L190.972 138.76L188.132 152.12C189.412 152.013 190.585 151.453 191.652 150.44C192.745 149.427 193.598 148.173 194.212 146.68C194.825 145.187 195.132 143.72 195.132 142.28C195.132 140.68 194.718 139.373 193.892 138.36C193.065 137.347 191.825 136.84 190.172 136.84C186.918 136.84 184.372 137.693 182.532 139.4C180.718 141.107 179.812 143.493 179.812 146.56C179.812 147.547 179.905 148.24 180.092 148.64C180.278 149.013 180.372 149.227 180.372 149.28C178.932 149.28 177.852 148.987 177.132 148.4C176.438 147.787 176.092 146.787 176.092 145.4C176.092 143.693 176.785 142.04 178.172 140.44C179.585 138.813 181.385 137.507 183.572 136.52C185.758 135.507 187.945 135 190.132 135C192.238 135 193.998 135.36 195.412 136.08C196.825 136.8 197.865 137.76 198.532 138.96C199.225 140.133 199.572 141.44 199.572 142.88C199.572 144.613 199.092 146.307 198.132 147.96C197.198 149.613 195.852 150.973 194.092 152.04C192.332 153.08 190.305 153.6 188.012 153.6H187.812L185.372 165H179.612L185.052 139.56ZM203.581 165.24C202.061 165.24 200.795 164.72 199.781 163.68C198.768 162.64 198.261 161.013 198.261 158.8C198.261 156.827 198.648 154.76 199.421 152.6C200.221 150.413 201.395 148.573 202.941 147.08C204.515 145.56 206.381 144.8 208.541 144.8C209.635 144.8 210.448 144.987 210.981 145.36C211.515 145.733 211.781 146.227 211.781 146.84V147.12L212.221 145H217.981L215.101 158.6C214.995 159 214.941 159.427 214.941 159.88C214.941 161.027 215.488 161.6 216.581 161.6C217.328 161.6 217.968 161.253 218.501 160.56C219.061 159.867 219.501 158.96 219.821 157.84H221.501C220.515 160.72 219.288 162.68 217.821 163.72C216.381 164.733 214.928 165.24 213.461 165.24C212.341 165.24 211.435 164.933 210.741 164.32C210.075 163.68 209.675 162.76 209.541 161.56C208.768 162.653 207.901 163.547 206.941 164.24C206.008 164.907 204.888 165.24 203.581 165.24ZM206.181 161.36C206.848 161.36 207.501 161.053 208.141 160.44C208.808 159.8 209.261 158.933 209.501 157.84L211.421 148.8C211.421 148.453 211.288 148.12 211.021 147.8C210.755 147.453 210.341 147.28 209.781 147.28C208.715 147.28 207.755 147.907 206.901 149.16C206.048 150.387 205.381 151.88 204.901 153.64C204.421 155.373 204.181 156.907 204.181 158.24C204.181 159.573 204.368 160.427 204.741 160.8C205.141 161.173 205.621 161.36 206.181 161.36ZM222.556 145H228.316L227.796 147.48C228.703 146.68 229.516 146.067 230.236 145.64C230.983 145.213 231.783 145 232.636 145C233.489 145 234.156 145.293 234.636 145.88C235.143 146.467 235.396 147.173 235.396 148C235.396 148.773 235.143 149.453 234.636 150.04C234.129 150.627 233.423 150.92 232.516 150.92C231.929 150.92 231.529 150.787 231.316 150.52C231.129 150.227 230.983 149.813 230.876 149.28C230.796 148.933 230.716 148.68 230.636 148.52C230.556 148.36 230.409 148.28 230.196 148.28C229.636 148.28 229.156 148.4 228.756 148.64C228.383 148.853 227.889 149.24 227.276 149.8L224.076 165H218.316L222.556 145ZM239.675 165.24C238.155 165.24 236.888 164.72 235.875 163.68C234.862 162.64 234.355 161.013 234.355 158.8C234.355 156.827 234.742 154.76 235.515 152.6C236.315 150.413 237.488 148.573 239.035 147.08C240.608 145.56 242.475 144.8 244.635 144.8C245.728 144.8 246.542 144.987 247.075 145.36C247.608 145.733 247.875 146.227 247.875 146.84V147.12L248.315 145H254.075L251.195 158.6C251.088 159 251.035 159.427 251.035 159.88C251.035 161.027 251.582 161.6 252.675 161.6C253.422 161.6 254.062 161.253 254.595 160.56C255.155 159.867 255.595 158.96 255.915 157.84H257.595C256.608 160.72 255.382 162.68 253.915 163.72C252.475 164.733 251.022 165.24 249.555 165.24C248.435 165.24 247.528 164.933 246.835 164.32C246.168 163.68 245.768 162.76 245.635 161.56C244.862 162.653 243.995 163.547 243.035 164.24C242.102 164.907 240.982 165.24 239.675 165.24ZM242.275 161.36C242.942 161.36 243.595 161.053 244.235 160.44C244.902 159.8 245.355 158.933 245.595 157.84L247.515 148.8C247.515 148.453 247.382 148.12 247.115 147.8C246.848 147.453 246.435 147.28 245.875 147.28C244.808 147.28 243.848 147.907 242.995 149.16C242.142 150.387 241.475 151.88 240.995 153.64C240.515 155.373 240.275 156.907 240.275 158.24C240.275 159.573 240.462 160.427 240.835 160.8C241.235 161.173 241.715 161.36 242.275 161.36ZM260.73 165.24C259.21 165.24 257.943 164.72 256.93 163.68C255.916 162.64 255.41 161.013 255.41 158.8C255.41 156.827 255.796 154.76 256.57 152.6C257.37 150.413 258.543 148.573 260.09 147.08C261.663 145.56 263.53 144.8 265.69 144.8C266.783 144.8 267.596 144.987 268.13 145.36C268.663 145.733 268.93 146.227 268.93 146.84V147L270.89 137.8L276.81 137L272.21 158.6C272.103 159 272.05 159.427 272.05 159.88C272.05 160.413 272.17 160.8 272.41 161.04C272.676 161.253 273.103 161.36 273.69 161.36C274.436 161.36 275.076 161.04 275.61 160.4C276.17 159.76 276.61 158.907 276.93 157.84H278.61C276.983 162.613 274.303 165 270.57 165C269.476 165 268.583 164.707 267.89 164.12C267.223 163.533 266.81 162.68 266.65 161.56C265.956 162.627 265.116 163.507 264.13 164.2C263.17 164.893 262.036 165.24 260.73 165.24ZM263.33 161.36C263.97 161.36 264.61 161.067 265.25 160.48C265.916 159.893 266.37 159.08 266.61 158.04V157.84L268.57 148.68C268.33 147.747 267.783 147.28 266.93 147.28C265.863 147.28 264.903 147.907 264.05 149.16C263.196 150.387 262.53 151.88 262.05 153.64C261.57 155.373 261.33 156.907 261.33 158.24C261.33 159.573 261.516 160.427 261.89 160.8C262.29 161.173 262.77 161.36 263.33 161.36ZM283.625 142.84C282.745 142.84 281.999 142.533 281.385 141.92C280.772 141.307 280.465 140.56 280.465 139.68C280.465 138.8 280.772 138.053 281.385 137.44C281.999 136.8 282.745 136.48 283.625 136.48C284.505 136.48 285.252 136.8 285.865 137.44C286.505 138.053 286.825 138.8 286.825 139.68C286.825 140.56 286.505 141.307 285.865 141.92C285.252 142.533 284.505 142.84 283.625 142.84ZM280.905 165.24C279.625 165.24 278.585 164.84 277.785 164.04C277.012 163.24 276.625 162.04 276.625 160.44C276.625 159.773 276.732 158.907 276.945 157.84L279.665 145H285.425L282.545 158.6C282.439 159 282.385 159.427 282.385 159.88C282.385 160.413 282.505 160.8 282.745 161.04C283.012 161.253 283.439 161.36 284.025 161.36C284.799 161.36 285.519 161.04 286.185 160.4C286.852 159.733 287.332 158.88 287.625 157.84H289.305C288.319 160.72 287.052 162.68 285.505 163.72C283.959 164.733 282.425 165.24 280.905 165.24ZM292.169 165.24C290.889 165.24 289.809 165 288.929 164.52C288.049 164.013 287.396 163.373 286.969 162.6C286.543 161.8 286.329 160.973 286.329 160.12C286.329 159.24 286.543 158.48 286.969 157.84C287.369 157.173 287.863 156.693 288.449 156.4C289.489 154.533 290.396 152.653 291.169 150.76C291.943 148.84 292.676 146.773 293.369 144.56L299.289 143.76C299.423 147.173 299.649 150.867 299.969 154.84C300.103 156.44 300.169 157.6 300.169 158.32C300.169 158.933 300.116 159.44 300.009 159.84C301.263 159.12 302.223 158.453 302.889 157.84H304.569C302.863 159.813 300.823 161.48 298.449 162.84C297.676 163.667 296.716 164.28 295.569 164.68C294.449 165.053 293.316 165.24 292.169 165.24ZM290.889 162.08C291.876 162.08 292.703 161.787 293.369 161.2C294.036 160.613 294.369 159.667 294.369 158.36C294.369 157.56 294.289 156.44 294.129 155C293.863 151.96 293.689 149.92 293.609 148.88C292.969 150.987 291.889 153.507 290.369 156.44C290.983 156.76 291.289 157.227 291.289 157.84C291.289 158.347 291.116 158.8 290.769 159.2C290.449 159.6 290.036 159.8 289.529 159.8C288.969 159.8 288.609 159.627 288.449 159.28C288.449 160.24 288.636 160.947 289.009 161.4C289.409 161.853 290.036 162.08 290.889 162.08ZM308.523 165.24C306.576 165.24 305.056 164.733 303.963 163.72C302.869 162.68 302.323 161.067 302.323 158.88C302.323 157.04 302.683 155.013 303.403 152.8C304.123 150.587 305.296 148.68 306.923 147.08C308.549 145.453 310.616 144.64 313.123 144.64C316.056 144.64 317.523 145.92 317.523 148.48C317.523 149.973 317.096 151.347 316.243 152.6C315.389 153.853 314.256 154.867 312.843 155.64C311.429 156.387 309.923 156.813 308.323 156.92C308.269 157.507 308.243 157.907 308.243 158.12C308.243 160.333 309.069 161.44 310.723 161.44C311.469 161.44 312.269 161.24 313.123 160.84C313.976 160.44 314.749 159.933 315.443 159.32C314.723 163.267 312.416 165.24 308.523 165.24ZM308.603 155C309.616 154.973 310.563 154.64 311.443 154C312.349 153.36 313.069 152.547 313.603 151.56C314.163 150.547 314.443 149.493 314.443 148.4C314.443 147.307 314.109 146.76 313.443 146.76C312.509 146.76 311.576 147.613 310.643 149.32C309.736 151 309.056 152.893 308.603 155Z" fill="#1E1E1E"/>
<defs>
<linearGradient id="paint0_linear_608_121" x1="0" y1="0" x2="431.93" y2="243.32" gradientUnits="userSpaceOnUse">
<stop stop-color="#FBD989"/>
<stop offset="1" stop-color="#F48C82"/>
</linearGradient>
</defs>
</svg>
