<svg width="100" height="100" viewBox="0 0 100 100" fill="none" xmlns="http://www.w3.org/2000/svg">
<rect width="100" height="100" rx="50" fill="white"/>
<path d="M68.5838 31.6732L58.1558 69H49.3321L42.3267 42.422L35.0003 69L26.2301 69.0535L16.1765 31.6732H24.198L30.7757 60.6576L38.3694 31.6732H46.7118L53.8776 60.4972L60.5088 31.6732H68.5838ZM76.7879 69.3743C75.4331 69.3743 74.3101 68.9643 73.4188 68.1444C72.5632 67.2887 72.1354 66.237 72.1354 64.9892C72.1354 63.7414 72.5632 62.7076 73.4188 61.8876C74.3101 61.032 75.4331 60.6041 76.7879 60.6041C78.107 60.6041 79.1943 61.032 80.05 61.8876C80.9056 62.7076 81.3334 63.7414 81.3334 64.9892C81.3334 66.237 80.9056 67.2887 80.05 68.1444C79.1943 68.9643 78.107 69.3743 76.7879 69.3743Z" fill="black"/>
</svg>
