<svg width="400" height="301" viewBox="0 0 400 301" fill="none" xmlns="http://www.w3.org/2000/svg">
<g clipPath="url(#clip0_67_2)">
<rect y="0.5" width="400" height="300" fill="url(#paint0_linear_67_2)"/>
<g filter="url(#filter0_d_67_2)">
<g filter="url(#filter1_d_67_2)">
<rect x="78" y="86" width="552.706" height="154.442" rx="7.5092" fill="#1E1E1E" shapeRendering="crispEdges"/>
<path d="M115.403 128.371C114.662 128.371 114.027 128.251 113.496 128.011C112.965 127.76 112.555 127.41 112.264 126.959C111.974 126.499 111.829 125.953 111.829 125.322H113.436C113.436 125.823 113.611 126.218 113.961 126.509C114.312 126.789 114.797 126.929 115.418 126.929C115.999 126.929 116.455 126.789 116.785 126.509C117.115 126.229 117.281 125.843 117.281 125.352C117.281 124.942 117.165 124.586 116.935 124.286C116.715 123.986 116.394 123.781 115.974 123.67L114.592 123.265C113.791 123.035 113.171 122.644 112.73 122.093C112.299 121.533 112.084 120.867 112.084 120.096C112.084 119.495 112.219 118.97 112.49 118.519C112.76 118.069 113.145 117.718 113.646 117.468C114.147 117.217 114.737 117.092 115.418 117.092C116.419 117.092 117.22 117.363 117.821 117.903C118.432 118.444 118.742 119.17 118.752 120.081H117.13C117.13 119.6 116.975 119.225 116.665 118.955C116.364 118.674 115.939 118.534 115.388 118.534C114.858 118.534 114.442 118.664 114.142 118.925C113.841 119.175 113.691 119.53 113.691 119.991C113.691 120.401 113.801 120.757 114.022 121.057C114.252 121.358 114.577 121.568 114.998 121.688L116.394 122.108C117.195 122.329 117.811 122.719 118.242 123.28C118.672 123.841 118.888 124.511 118.888 125.292C118.888 125.903 118.742 126.444 118.452 126.914C118.162 127.375 117.756 127.735 117.235 127.996C116.715 128.246 116.104 128.371 115.403 128.371ZM125.264 128.221C124.514 128.221 123.928 128.016 123.507 127.605C123.087 127.195 122.877 126.624 122.877 125.893V121.433H120.594V119.961H122.877V117.633H124.499V119.961H127.727V121.433H124.499V125.893C124.499 126.464 124.774 126.749 125.325 126.749H127.577V128.221H125.264ZM130.395 128.221V119.961H131.957V121.538H132.347L131.852 122.514C131.852 121.623 132.047 120.952 132.437 120.501C132.828 120.041 133.409 119.811 134.18 119.811C135.061 119.811 135.756 120.086 136.267 120.637C136.788 121.177 137.048 121.923 137.048 122.874V123.43H135.381V123.01C135.381 122.419 135.231 121.968 134.93 121.658C134.64 121.338 134.23 121.177 133.699 121.177C133.168 121.177 132.753 121.338 132.452 121.658C132.162 121.978 132.017 122.429 132.017 123.01V128.221H130.395ZM139.085 128.221V126.749H141.983V121.433H139.46V119.961H143.56V126.749H146.218V128.221H139.085ZM142.614 118.534C142.264 118.534 141.983 118.444 141.773 118.264C141.563 118.074 141.458 117.823 141.458 117.513C141.458 117.192 141.563 116.942 141.773 116.762C141.983 116.572 142.264 116.477 142.614 116.477C142.964 116.477 143.245 116.572 143.455 116.762C143.665 116.942 143.77 117.192 143.77 117.513C143.77 117.823 143.665 118.074 143.455 118.264C143.245 118.444 142.964 118.534 142.614 118.534ZM148.135 128.221V119.961H149.742V121.538H150.132L149.742 121.913C149.742 121.252 149.937 120.737 150.328 120.366C150.718 119.996 151.259 119.811 151.95 119.811C152.771 119.811 153.426 120.076 153.917 120.607C154.408 121.127 154.653 121.833 154.653 122.724V128.221H153.031V122.904C153.031 122.364 152.886 121.948 152.595 121.658C152.305 121.368 151.91 121.222 151.409 121.222C150.898 121.222 150.493 121.378 150.192 121.688C149.902 121.988 149.757 122.429 149.757 123.01V128.221H148.135ZM158.221 130.924V129.528H160.76C161.18 129.528 161.49 129.427 161.691 129.227C161.901 129.027 162.006 128.732 162.006 128.341V127.515L162.036 125.983H161.691L162.021 125.683C162.021 126.314 161.821 126.809 161.42 127.17C161.03 127.53 160.499 127.71 159.828 127.71C158.977 127.71 158.307 127.43 157.816 126.869C157.325 126.309 157.08 125.553 157.08 124.602V122.919C157.08 121.968 157.325 121.212 157.816 120.652C158.307 120.091 158.977 119.811 159.828 119.811C160.499 119.811 161.03 119.996 161.42 120.366C161.821 120.727 162.021 121.222 162.021 121.853L161.691 121.538H162.021L162.006 119.961H163.613V128.371C163.613 129.162 163.363 129.783 162.862 130.233C162.361 130.694 161.666 130.924 160.775 130.924H158.221ZM160.354 126.314C160.865 126.314 161.265 126.158 161.555 125.848C161.856 125.528 162.006 125.087 162.006 124.526V123.01C162.006 122.449 161.856 122.013 161.555 121.703C161.265 121.383 160.865 121.222 160.354 121.222C159.823 121.222 159.413 121.378 159.123 121.688C158.842 121.988 158.702 122.429 158.702 123.01V124.526C158.702 125.097 158.842 125.538 159.123 125.848C159.413 126.158 159.823 126.314 160.354 126.314Z" fill="#4F91FF"/>
<path d="M178.394 128.371C177.724 128.371 177.133 128.241 176.622 127.981C176.122 127.71 175.736 127.335 175.466 126.854C175.195 126.374 175.06 125.813 175.06 125.172V123.01C175.06 122.359 175.195 121.798 175.466 121.327C175.736 120.847 176.122 120.476 176.622 120.216C177.133 119.946 177.724 119.811 178.394 119.811C179.075 119.811 179.666 119.946 180.167 120.216C180.667 120.476 181.053 120.847 181.323 121.327C181.593 121.798 181.728 122.359 181.728 123.01V124.481H176.622V125.172C176.622 125.783 176.772 126.249 177.073 126.569C177.383 126.889 177.829 127.05 178.409 127.05C178.88 127.05 179.26 126.969 179.551 126.809C179.841 126.639 180.021 126.394 180.091 126.073H181.698C181.578 126.774 181.218 127.335 180.617 127.755C180.016 128.166 179.275 128.371 178.394 128.371ZM180.167 123.505V122.995C180.167 122.394 180.016 121.928 179.716 121.598C179.416 121.267 178.975 121.102 178.394 121.102C177.824 121.102 177.383 121.267 177.073 121.598C176.772 121.928 176.622 122.399 176.622 123.01V123.385L180.287 123.37L180.167 123.505ZM183.78 128.221V119.961H185.132V121.012H185.432L185.207 121.327C185.207 120.867 185.332 120.501 185.582 120.231C185.833 119.951 186.168 119.811 186.589 119.811C187.039 119.811 187.385 119.986 187.625 120.336C187.875 120.687 188 121.167 188 121.778L187.64 121.012H188.211L187.97 121.327C187.97 120.867 188.095 120.501 188.346 120.231C188.606 119.951 188.951 119.811 189.382 119.811C189.893 119.811 190.293 120.006 190.583 120.396C190.874 120.777 191.019 121.287 191.019 121.928V128.221H189.577V121.973C189.577 121.663 189.507 121.423 189.367 121.252C189.237 121.082 189.047 120.997 188.796 120.997C188.546 120.997 188.351 121.082 188.211 121.252C188.08 121.413 188.015 121.648 188.015 121.958V128.221H186.799V121.973C186.799 121.653 186.729 121.413 186.589 121.252C186.448 121.082 186.248 120.997 185.988 120.997C185.738 120.997 185.547 121.082 185.417 121.252C185.297 121.413 185.237 121.648 185.237 121.958V128.221H183.78ZM195.579 128.371C194.718 128.371 194.037 128.151 193.536 127.71C193.046 127.26 192.8 126.649 192.8 125.878C192.8 125.097 193.061 124.486 193.581 124.046C194.112 123.595 194.838 123.37 195.759 123.37H198.057V122.604C198.057 122.154 197.917 121.803 197.636 121.553C197.356 121.302 196.96 121.177 196.45 121.177C195.999 121.177 195.624 121.277 195.323 121.478C195.023 121.668 194.848 121.923 194.798 122.244H193.206C193.296 121.503 193.636 120.912 194.227 120.471C194.828 120.031 195.584 119.811 196.495 119.811C197.476 119.811 198.252 120.061 198.823 120.562C199.393 121.052 199.679 121.723 199.679 122.574V128.221H198.102V126.704H197.832L198.102 126.404C198.102 127.004 197.872 127.485 197.411 127.845C196.95 128.196 196.34 128.371 195.579 128.371ZM196.059 127.125C196.64 127.125 197.116 126.979 197.486 126.689C197.867 126.389 198.057 126.008 198.057 125.548V124.466H195.789C195.368 124.466 195.033 124.581 194.783 124.812C194.542 125.042 194.422 125.357 194.422 125.758C194.422 126.178 194.568 126.514 194.858 126.764C195.148 127.004 195.549 127.125 196.059 127.125ZM202.121 128.221V126.749H205.019V121.433H202.496V119.961H206.596V126.749H209.255V128.221H202.121ZM205.65 118.534C205.3 118.534 205.019 118.444 204.809 118.264C204.599 118.074 204.494 117.823 204.494 117.513C204.494 117.192 204.599 116.942 204.809 116.762C205.019 116.572 205.3 116.477 205.65 116.477C206.001 116.477 206.281 116.572 206.491 116.762C206.702 116.942 206.807 117.192 206.807 117.513C206.807 117.823 206.702 118.074 206.491 118.264C206.281 118.444 206.001 118.534 205.65 118.534ZM215.602 128.221C215.091 128.221 214.645 128.121 214.265 127.921C213.884 127.71 213.584 127.415 213.364 127.034C213.154 126.654 213.048 126.213 213.048 125.713V118.729H210.345V117.258H214.67V125.713C214.67 126.033 214.761 126.289 214.941 126.479C215.121 126.659 215.366 126.749 215.677 126.749H218.23V128.221H215.602ZM229.181 122.169V120.712H235.669V122.169H229.181ZM229.181 125.818V124.361H235.669V125.818H229.181ZM247.192 128.221V119.961H248.799V121.538H249.189L248.799 121.913C248.799 121.252 248.994 120.737 249.385 120.366C249.775 119.996 250.316 119.811 251.007 119.811C251.828 119.811 252.483 120.076 252.974 120.607C253.465 121.127 253.71 121.833 253.71 122.724V128.221H252.088V122.904C252.088 122.364 251.943 121.948 251.652 121.658C251.362 121.368 250.966 121.222 250.466 121.222C249.955 121.222 249.55 121.378 249.249 121.688C248.959 121.988 248.814 122.429 248.814 123.01V128.221H247.192ZM259.441 128.371C258.77 128.371 258.179 128.241 257.669 127.981C257.168 127.71 256.783 127.335 256.512 126.854C256.242 126.374 256.107 125.813 256.107 125.172V123.01C256.107 122.359 256.242 121.798 256.512 121.327C256.783 120.847 257.168 120.476 257.669 120.216C258.179 119.946 258.77 119.811 259.441 119.811C260.122 119.811 260.713 119.946 261.213 120.216C261.714 120.476 262.099 120.847 262.37 121.327C262.64 121.798 262.775 122.359 262.775 123.01V124.481H257.669V125.172C257.669 125.783 257.819 126.249 258.119 126.569C258.43 126.889 258.875 127.05 259.456 127.05C259.927 127.05 260.307 126.969 260.597 126.809C260.888 126.639 261.068 126.394 261.138 126.073H262.745C262.625 126.774 262.264 127.335 261.664 127.755C261.063 128.166 260.322 128.371 259.441 128.371ZM261.213 123.505V122.995C261.213 122.394 261.063 121.928 260.763 121.598C260.462 121.267 260.022 121.102 259.441 121.102C258.87 121.102 258.43 121.267 258.119 121.598C257.819 121.928 257.669 122.399 257.669 123.01V123.385L261.333 123.37L261.213 123.505ZM265.638 128.221L264.361 119.961H265.728L266.494 125.413C266.534 125.663 266.569 125.943 266.599 126.254C266.639 126.554 266.669 126.804 266.689 127.004C266.709 126.804 266.739 126.554 266.779 126.254C266.829 125.953 266.874 125.673 266.914 125.413L267.77 119.961H269.137L269.978 125.413C270.018 125.673 270.058 125.958 270.098 126.269C270.148 126.569 270.183 126.819 270.203 127.019C270.223 126.809 270.253 126.554 270.293 126.254C270.343 125.943 270.389 125.663 270.429 125.413L271.21 119.961H272.531L271.21 128.221H269.497L268.686 122.829C268.646 122.549 268.601 122.254 268.551 121.943C268.501 121.623 268.466 121.368 268.446 121.177C268.416 121.368 268.376 121.623 268.326 121.943C268.286 122.254 268.246 122.549 268.206 122.829L267.365 128.221H265.638ZM334.261 130.023C332.789 129.653 331.648 128.957 330.837 127.936C330.026 126.904 329.62 125.648 329.62 124.166V121.463C329.62 120.491 329.805 119.61 330.176 118.819C330.556 118.028 331.092 117.358 331.783 116.807C332.484 116.246 333.31 115.846 334.261 115.605V117.167C333.64 117.318 333.104 117.593 332.654 117.993C332.203 118.384 331.853 118.874 331.603 119.465C331.362 120.056 331.242 120.722 331.242 121.463V124.166C331.242 124.887 331.362 125.543 331.603 126.133C331.853 126.724 332.203 127.215 332.654 127.605C333.104 127.986 333.64 128.251 334.261 128.401V130.023ZM340.518 121.237L342.47 116.567H343.897L342.695 121.237H340.518ZM336.928 121.237L338.881 116.567H340.307L339.106 121.237H336.928ZM346.399 128.221V117.258H352.842V118.699H347.991V121.808H352.316V123.235H347.991V126.779H352.842V128.221H346.399ZM354.878 128.221V119.961H356.23V121.012H356.531L356.305 121.327C356.305 120.867 356.43 120.501 356.681 120.231C356.931 119.951 357.266 119.811 357.687 119.811C358.137 119.811 358.483 119.986 358.723 120.336C358.974 120.687 359.099 121.167 359.099 121.778L358.738 121.012H359.309L359.069 121.327C359.069 120.867 359.194 120.501 359.444 120.231C359.704 119.951 360.05 119.811 360.48 119.811C360.991 119.811 361.391 120.006 361.682 120.396C361.972 120.777 362.117 121.287 362.117 121.928V128.221H360.676V121.973C360.676 121.663 360.606 121.423 360.465 121.252C360.335 121.082 360.145 120.997 359.895 120.997C359.644 120.997 359.449 121.082 359.309 121.252C359.179 121.413 359.114 121.648 359.114 121.958V128.221H357.897V121.973C357.897 121.653 357.827 121.413 357.687 121.252C357.547 121.082 357.347 120.997 357.086 120.997C356.836 120.997 356.646 121.082 356.515 121.252C356.395 121.413 356.335 121.648 356.335 121.958V128.221H354.878ZM366.677 128.371C365.816 128.371 365.135 128.151 364.635 127.71C364.144 127.26 363.899 126.649 363.899 125.878C363.899 125.097 364.159 124.486 364.68 124.046C365.21 123.595 365.936 123.37 366.857 123.37H369.155V122.604C369.155 122.154 369.015 121.803 368.735 121.553C368.454 121.302 368.059 121.177 367.548 121.177C367.098 121.177 366.722 121.277 366.422 121.478C366.121 121.668 365.946 121.923 365.896 122.244H364.304C364.394 121.503 364.735 120.912 365.325 120.471C365.926 120.031 366.682 119.811 367.593 119.811C368.574 119.811 369.35 120.061 369.921 120.562C370.492 121.052 370.777 121.723 370.777 122.574V128.221H369.2V126.704H368.93L369.2 126.404C369.2 127.004 368.97 127.485 368.509 127.845C368.049 128.196 367.438 128.371 366.677 128.371ZM367.158 127.125C367.738 127.125 368.214 126.979 368.584 126.689C368.965 126.389 369.155 126.008 369.155 125.548V124.466H366.887C366.467 124.466 366.131 124.581 365.881 124.812C365.641 125.042 365.521 125.357 365.521 125.758C365.521 126.178 365.666 126.514 365.956 126.764C366.247 127.004 366.647 127.125 367.158 127.125ZM373.219 128.221V126.749H376.118V121.433H373.595V119.961H377.695V126.749H380.353V128.221H373.219ZM376.749 118.534C376.398 118.534 376.118 118.444 375.908 118.264C375.697 118.074 375.592 117.823 375.592 117.513C375.592 117.192 375.697 116.942 375.908 116.762C376.118 116.572 376.398 116.477 376.749 116.477C377.099 116.477 377.379 116.572 377.59 116.762C377.8 116.942 377.905 117.192 377.905 117.513C377.905 117.823 377.8 118.074 377.59 118.264C377.379 118.444 377.099 118.534 376.749 118.534ZM386.7 128.221C386.189 128.221 385.744 128.121 385.363 127.921C384.983 127.71 384.682 127.415 384.462 127.034C384.252 126.654 384.147 126.213 384.147 125.713V118.729H381.443V117.258H385.769V125.713C385.769 126.033 385.859 126.289 386.039 126.479C386.219 126.659 386.465 126.749 386.775 126.749H389.328V128.221H386.7ZM394.699 121.237L395.9 116.567H398.078L396.126 121.237H394.699ZM391.109 121.237L392.311 116.567H394.489L392.536 121.237H391.109ZM401.391 130.624L402.593 125.953H404.755L402.803 130.624H401.391ZM418.29 130.924V129.422H420.363C420.913 129.422 421.344 129.272 421.654 128.972C421.965 128.671 422.12 128.246 422.12 127.695V121.448H418.741V119.961H423.742V127.71C423.742 128.702 423.441 129.482 422.841 130.053C422.24 130.634 421.429 130.924 420.408 130.924H418.29ZM422.856 118.534C422.505 118.534 422.225 118.444 422.015 118.264C421.804 118.074 421.699 117.823 421.699 117.513C421.699 117.192 421.804 116.942 422.015 116.762C422.225 116.572 422.505 116.477 422.856 116.477C423.206 116.477 423.487 116.572 423.697 116.762C423.907 116.942 424.012 117.192 424.012 117.513C424.012 117.823 423.907 118.074 423.697 118.264C423.487 118.444 423.206 118.534 422.856 118.534ZM429.728 128.221V118.744H426.8V117.242H434.279V118.744H431.35V128.221H429.728ZM435.685 128.221L438.583 123.956L435.865 119.961H437.727L439.184 122.244C439.254 122.364 439.324 122.494 439.394 122.634C439.464 122.764 439.519 122.874 439.56 122.965C439.59 122.874 439.64 122.764 439.71 122.634C439.78 122.494 439.85 122.364 439.92 122.244L441.377 119.961H443.239L440.521 123.971L443.404 128.221H441.542L439.935 125.743C439.865 125.623 439.795 125.488 439.725 125.337C439.655 125.187 439.6 125.067 439.56 124.977C439.519 125.067 439.459 125.187 439.379 125.337C439.309 125.488 439.234 125.623 439.154 125.743L437.532 128.221H435.685ZM449.451 128.221C448.7 128.221 448.114 128.016 447.694 127.605C447.273 127.195 447.063 126.624 447.063 125.893V121.433H444.78V119.961H447.063V117.633H448.685V119.961H451.914V121.433H448.685V125.893C448.685 126.464 448.96 126.749 449.511 126.749H451.764V128.221H449.451ZM454.461 128.221V117.258H460.904V118.699H456.053V121.808H460.378V123.235H456.053V126.779H460.904V128.221H454.461ZM462.941 128.221V119.961H464.292V121.012H464.593L464.367 121.327C464.367 120.867 464.492 120.501 464.743 120.231C464.993 119.951 465.329 119.811 465.749 119.811C466.2 119.811 466.545 119.986 466.785 120.336C467.036 120.687 467.161 121.167 467.161 121.778L466.8 121.012H467.371L467.131 121.327C467.131 120.867 467.256 120.501 467.506 120.231C467.767 119.951 468.112 119.811 468.542 119.811C469.053 119.811 469.454 120.006 469.744 120.396C470.034 120.777 470.179 121.287 470.179 121.928V128.221H468.738V121.973C468.738 121.663 468.668 121.423 468.527 121.252C468.397 121.082 468.207 120.997 467.957 120.997C467.706 120.997 467.511 121.082 467.371 121.252C467.241 121.413 467.176 121.648 467.176 121.958V128.221H465.959V121.973C465.959 121.653 465.889 121.413 465.749 121.252C465.609 121.082 465.409 120.997 465.148 120.997C464.898 120.997 464.708 121.082 464.578 121.252C464.457 121.413 464.397 121.648 464.397 121.958V128.221H462.941ZM474.739 128.371C473.878 128.371 473.197 128.151 472.697 127.71C472.206 127.26 471.961 126.649 471.961 125.878C471.961 125.097 472.221 124.486 472.742 124.046C473.272 123.595 473.998 123.37 474.919 123.37H477.217V122.604C477.217 122.154 477.077 121.803 476.797 121.553C476.516 121.302 476.121 121.177 475.61 121.177C475.16 121.177 474.784 121.277 474.484 121.478C474.184 121.668 474.008 121.923 473.958 122.244H472.366C472.456 121.503 472.797 120.912 473.388 120.471C473.988 120.031 474.744 119.811 475.655 119.811C476.637 119.811 477.412 120.061 477.983 120.562C478.554 121.052 478.839 121.723 478.839 122.574V128.221H477.262V126.704H476.992L477.262 126.404C477.262 127.004 477.032 127.485 476.571 127.845C476.111 128.196 475.5 128.371 474.739 128.371ZM475.22 127.125C475.801 127.125 476.276 126.979 476.647 126.689C477.027 126.389 477.217 126.008 477.217 125.548V124.466H474.949C474.529 124.466 474.194 124.581 473.943 124.812C473.703 125.042 473.583 125.357 473.583 125.758C473.583 126.178 473.728 126.514 474.018 126.764C474.309 127.004 474.709 127.125 475.22 127.125ZM481.281 128.221V126.749H484.18V121.433H481.657V119.961H485.757V126.749H488.415V128.221H481.281ZM484.811 118.534C484.46 118.534 484.18 118.444 483.97 118.264C483.759 118.074 483.654 117.823 483.654 117.513C483.654 117.192 483.759 116.942 483.97 116.762C484.18 116.572 484.46 116.477 484.811 116.477C485.161 116.477 485.441 116.572 485.652 116.762C485.862 116.942 485.967 117.192 485.967 117.513C485.967 117.823 485.862 118.074 485.652 118.264C485.441 118.444 485.161 118.534 484.811 118.534ZM494.762 128.221C494.251 128.221 493.806 128.121 493.425 127.921C493.045 127.71 492.745 127.415 492.524 127.034C492.314 126.654 492.209 126.213 492.209 125.713V118.729H489.506V117.258H493.831V125.713C493.831 126.033 493.921 126.289 494.101 126.479C494.281 126.659 494.527 126.749 494.837 126.749H497.39V128.221H494.762ZM502.581 128.371C502.18 128.371 501.86 128.256 501.62 128.026C501.379 127.785 501.259 127.465 501.259 127.065C501.259 126.654 501.379 126.329 501.62 126.088C501.86 125.838 502.18 125.713 502.581 125.713C502.991 125.713 503.312 125.838 503.542 126.088C503.782 126.329 503.902 126.654 503.902 127.065C503.902 127.465 503.782 127.785 503.542 128.026C503.312 128.256 502.991 128.371 502.581 128.371ZM509.423 130.924V129.528H511.961C512.382 129.528 512.692 129.427 512.893 129.227C513.103 129.027 513.208 128.732 513.208 128.341V127.515L513.238 125.983H512.893L513.223 125.683C513.223 126.314 513.023 126.809 512.622 127.17C512.232 127.53 511.701 127.71 511.03 127.71C510.179 127.71 509.508 127.43 509.018 126.869C508.527 126.309 508.282 125.553 508.282 124.602V122.919C508.282 121.968 508.527 121.212 509.018 120.652C509.508 120.091 510.179 119.811 511.03 119.811C511.701 119.811 512.232 119.996 512.622 120.366C513.023 120.727 513.223 121.222 513.223 121.853L512.893 121.538H513.223L513.208 119.961H514.815V128.371C514.815 129.162 514.565 129.783 514.064 130.233C513.563 130.694 512.867 130.924 511.976 130.924H509.423ZM511.556 126.314C512.066 126.314 512.467 126.158 512.757 125.848C513.058 125.528 513.208 125.087 513.208 124.526V123.01C513.208 122.449 513.058 122.013 512.757 121.703C512.467 121.383 512.066 121.222 511.556 121.222C511.025 121.222 510.615 121.378 510.324 121.688C510.044 121.988 509.904 122.429 509.904 123.01V124.526C509.904 125.097 510.044 125.538 510.324 125.848C510.615 126.158 511.025 126.314 511.556 126.314ZM520.591 128.371C519.92 128.371 519.33 128.241 518.819 127.981C518.318 127.71 517.933 127.335 517.663 126.854C517.392 126.374 517.257 125.813 517.257 125.172V123.01C517.257 122.359 517.392 121.798 517.663 121.327C517.933 120.847 518.318 120.476 518.819 120.216C519.33 119.946 519.92 119.811 520.591 119.811C521.272 119.811 521.863 119.946 522.363 120.216C522.864 120.476 523.249 120.847 523.52 121.327C523.79 121.798 523.925 122.359 523.925 123.01V124.481H518.819V125.172C518.819 125.783 518.969 126.249 519.269 126.569C519.58 126.889 520.025 127.05 520.606 127.05C521.077 127.05 521.457 126.969 521.748 126.809C522.038 126.639 522.218 126.394 522.288 126.073H523.895C523.775 126.774 523.415 127.335 522.814 127.755C522.213 128.166 521.472 128.371 520.591 128.371ZM522.363 123.505V122.995C522.363 122.394 522.213 121.928 521.913 121.598C521.612 121.267 521.172 121.102 520.591 121.102C520.02 121.102 519.58 121.267 519.269 121.598C518.969 121.928 518.819 122.399 518.819 123.01V123.385L522.483 123.37L522.363 123.505ZM530.497 128.221C529.746 128.221 529.161 128.016 528.74 127.605C528.32 127.195 528.109 126.624 528.109 125.893V121.433H525.827V119.961H528.109V117.633H529.731V119.961H532.96V121.433H529.731V125.893C529.731 126.464 530.007 126.749 530.557 126.749H532.81V128.221H530.497ZM537.79 128.221V118.744H534.862V117.242H542.341V118.744H539.412V128.221H537.79ZM547.607 128.371C546.936 128.371 546.345 128.241 545.834 127.981C545.334 127.71 544.948 127.335 544.678 126.854C544.408 126.374 544.273 125.813 544.273 125.172V123.01C544.273 122.359 544.408 121.798 544.678 121.327C544.948 120.847 545.334 120.476 545.834 120.216C546.345 119.946 546.936 119.811 547.607 119.811C548.287 119.811 548.878 119.946 549.379 120.216C549.879 120.476 550.265 120.847 550.535 121.327C550.806 121.798 550.941 122.359 550.941 123.01V124.481H545.834V125.172C545.834 125.783 545.985 126.249 546.285 126.569C546.595 126.889 547.041 127.05 547.622 127.05C548.092 127.05 548.473 126.969 548.763 126.809C549.053 126.639 549.234 126.394 549.304 126.073H550.911C550.79 126.774 550.43 127.335 549.829 127.755C549.229 128.166 548.488 128.371 547.607 128.371ZM549.379 123.505V122.995C549.379 122.394 549.229 121.928 548.928 121.598C548.628 121.267 548.187 121.102 547.607 121.102C547.036 121.102 546.595 121.267 546.285 121.598C545.985 121.928 545.834 122.399 545.834 123.01V123.385L549.499 123.37L549.379 123.505ZM552.752 128.221L555.651 123.956L552.932 119.961H554.795L556.251 122.244C556.321 122.364 556.392 122.494 556.462 122.634C556.532 122.764 556.587 122.874 556.627 122.965C556.657 122.874 556.707 122.764 556.777 122.634C556.847 122.494 556.917 122.364 556.987 122.244L558.444 119.961H560.306L557.588 123.971L560.472 128.221H558.609L557.002 125.743C556.932 125.623 556.862 125.488 556.792 125.337C556.722 125.187 556.667 125.067 556.627 124.977C556.587 125.067 556.527 125.187 556.447 125.337C556.376 125.488 556.301 125.623 556.221 125.743L554.599 128.221H552.752ZM566.518 128.221C565.767 128.221 565.181 128.016 564.761 127.605C564.34 127.195 564.13 126.624 564.13 125.893V121.433H561.847V119.961H564.13V117.633H565.752V119.961H568.981V121.433H565.752V125.893C565.752 126.464 566.027 126.749 566.578 126.749H568.831V128.221H566.518ZM577.401 130.023C575.929 129.653 574.787 128.957 573.976 127.936C573.165 126.904 572.76 125.648 572.76 124.166V121.463C572.76 120.491 572.945 119.61 573.316 118.819C573.696 118.028 574.232 117.358 574.922 116.807C575.623 116.246 576.449 115.846 577.401 115.605V117.167C576.78 117.318 576.244 117.593 575.794 117.993C575.343 118.384 574.993 118.874 574.742 119.465C574.502 120.056 574.382 120.722 574.382 121.463V124.166C574.382 124.887 574.502 125.543 574.742 126.133C574.993 126.724 575.343 127.215 575.794 127.605C576.244 127.986 576.78 128.251 577.401 128.401V130.023ZM580.849 130.023V128.401C581.47 128.251 582.005 127.986 582.456 127.605C582.906 127.215 583.252 126.724 583.492 126.133C583.742 125.543 583.868 124.887 583.868 124.166V121.463C583.868 120.722 583.742 120.056 583.492 119.465C583.252 118.874 582.906 118.384 582.456 117.993C582.005 117.593 581.47 117.318 580.849 117.167V115.605C581.81 115.846 582.636 116.246 583.327 116.807C584.018 117.358 584.548 118.028 584.919 118.819C585.299 119.61 585.49 120.491 585.49 121.463V124.166C585.49 125.648 585.084 126.904 584.273 127.936C583.462 128.957 582.321 129.653 580.849 130.023ZM589.854 130.023V128.401C590.475 128.251 591.01 127.986 591.461 127.605C591.912 127.215 592.257 126.724 592.497 126.133C592.748 125.543 592.873 124.887 592.873 124.166V121.463C592.873 120.722 592.748 120.056 592.497 119.465C592.257 118.874 591.912 118.384 591.461 117.993C591.01 117.593 590.475 117.318 589.854 117.167V115.605C590.815 115.846 591.641 116.246 592.332 116.807C593.023 117.358 593.554 118.028 593.924 118.819C594.305 119.61 594.495 120.491 594.495 121.463V124.166C594.495 125.648 594.089 126.904 593.278 127.936C592.467 128.957 591.326 129.653 589.854 130.023ZM196.405 148.371C196.004 148.371 195.684 148.256 195.444 148.026C195.203 147.785 195.083 147.465 195.083 147.065C195.083 146.654 195.203 146.329 195.444 146.088C195.684 145.838 196.004 145.713 196.405 145.713C196.815 145.713 197.136 145.838 197.366 146.088C197.606 146.329 197.726 146.654 197.726 147.065C197.726 147.465 197.606 147.785 197.366 148.026C197.136 148.256 196.815 148.371 196.405 148.371ZM202.436 148.221V139.961H203.998V141.538H204.389L203.893 142.514C203.893 141.623 204.088 140.952 204.479 140.501C204.869 140.041 205.45 139.811 206.221 139.811C207.102 139.811 207.798 140.086 208.308 140.637C208.829 141.177 209.089 141.923 209.089 142.874V143.43H207.422V143.01C207.422 142.419 207.272 141.968 206.972 141.658C206.681 141.338 206.271 141.177 205.74 141.177C205.21 141.177 204.794 141.338 204.494 141.658C204.203 141.978 204.058 142.429 204.058 143.01V148.221H202.436ZM214.415 148.371C213.744 148.371 213.154 148.241 212.643 147.981C212.142 147.71 211.757 147.335 211.487 146.854C211.216 146.374 211.081 145.813 211.081 145.172V143.01C211.081 142.359 211.216 141.798 211.487 141.327C211.757 140.847 212.142 140.476 212.643 140.216C213.154 139.946 213.744 139.811 214.415 139.811C215.096 139.811 215.687 139.946 216.187 140.216C216.688 140.476 217.073 140.847 217.344 141.327C217.614 141.798 217.749 142.359 217.749 143.01V144.481H212.643V145.172C212.643 145.783 212.793 146.249 213.093 146.569C213.404 146.889 213.849 147.05 214.43 147.05C214.901 147.05 215.281 146.969 215.572 146.809C215.862 146.639 216.042 146.394 216.112 146.073H217.719C217.599 146.774 217.239 147.335 216.638 147.755C216.037 148.166 215.296 148.371 214.415 148.371ZM216.187 143.505V142.995C216.187 142.394 216.037 141.928 215.737 141.598C215.436 141.267 214.996 141.102 214.415 141.102C213.844 141.102 213.404 141.267 213.093 141.598C212.793 141.928 212.643 142.399 212.643 143.01V143.385L216.307 143.37L216.187 143.505ZM225.042 150.924V148.566L225.087 146.644H224.712L225.057 146.269C225.057 146.919 224.857 147.435 224.457 147.815C224.056 148.186 223.515 148.371 222.835 148.371C222.004 148.371 221.343 148.091 220.852 147.53C220.362 146.969 220.116 146.208 220.116 145.247V142.919C220.116 141.958 220.362 141.202 220.852 140.652C221.343 140.091 222.004 139.811 222.835 139.811C223.515 139.811 224.056 140.001 224.457 140.381C224.857 140.752 225.057 141.262 225.057 141.913L224.712 141.538H225.057V139.961H226.664V150.924H225.042ZM223.39 146.959C223.901 146.959 224.301 146.804 224.592 146.494C224.892 146.173 225.042 145.733 225.042 145.172V143.01C225.042 142.449 224.892 142.013 224.592 141.703C224.301 141.383 223.901 141.222 223.39 141.222C222.86 141.222 222.449 141.378 222.159 141.688C221.878 141.988 221.738 142.429 221.738 143.01V145.172C221.738 145.753 221.878 146.198 222.159 146.509C222.449 146.809 222.86 146.959 223.39 146.959ZM232.41 148.371C231.419 148.371 230.628 148.086 230.038 147.515C229.447 146.934 229.151 146.148 229.151 145.157V139.961H230.773V145.157C230.773 145.728 230.919 146.173 231.209 146.494C231.499 146.804 231.9 146.959 232.41 146.959C232.931 146.959 233.337 146.804 233.627 146.494C233.927 146.173 234.077 145.728 234.077 145.157V139.961H235.699V145.157C235.699 146.148 235.399 146.934 234.798 147.515C234.208 148.086 233.412 148.371 232.41 148.371ZM238.142 148.221V146.749H241.04V141.433H238.517V139.961H242.617V146.749H245.275V148.221H238.142ZM241.671 138.534C241.321 138.534 241.04 138.444 240.83 138.264C240.62 138.074 240.515 137.823 240.515 137.513C240.515 137.192 240.62 136.942 240.83 136.762C241.04 136.572 241.321 136.477 241.671 136.477C242.021 136.477 242.302 136.572 242.512 136.762C242.722 136.942 242.827 137.192 242.827 137.513C242.827 137.823 242.722 138.074 242.512 138.264C242.302 138.444 242.021 138.534 241.671 138.534ZM247.462 148.221V139.961H249.024V141.538H249.415L248.919 142.514C248.919 141.623 249.114 140.952 249.505 140.501C249.895 140.041 250.476 139.811 251.247 139.811C252.128 139.811 252.824 140.086 253.334 140.637C253.855 141.177 254.115 141.923 254.115 142.874V143.43H252.448V143.01C252.448 142.419 252.298 141.968 251.998 141.658C251.707 141.338 251.297 141.177 250.766 141.177C250.236 141.177 249.82 141.338 249.52 141.658C249.229 141.978 249.084 142.429 249.084 143.01V148.221H247.462ZM259.441 148.371C258.77 148.371 258.179 148.241 257.669 147.981C257.168 147.71 256.783 147.335 256.512 146.854C256.242 146.374 256.107 145.813 256.107 145.172V143.01C256.107 142.359 256.242 141.798 256.512 141.327C256.783 140.847 257.168 140.476 257.669 140.216C258.179 139.946 258.77 139.811 259.441 139.811C260.122 139.811 260.713 139.946 261.213 140.216C261.714 140.476 262.099 140.847 262.37 141.327C262.64 141.798 262.775 142.359 262.775 143.01V144.481H257.669V145.172C257.669 145.783 257.819 146.249 258.119 146.569C258.43 146.889 258.875 147.05 259.456 147.05C259.927 147.05 260.307 146.969 260.597 146.809C260.888 146.639 261.068 146.394 261.138 146.073H262.745C262.625 146.774 262.264 147.335 261.664 147.755C261.063 148.166 260.322 148.371 259.441 148.371ZM261.213 143.505V142.995C261.213 142.394 261.063 141.928 260.763 141.598C260.462 141.267 260.022 141.102 259.441 141.102C258.87 141.102 258.43 141.267 258.119 141.598C257.819 141.928 257.669 142.399 257.669 143.01V143.385L261.333 143.37L261.213 143.505ZM267.86 148.371C267.029 148.371 266.364 148.091 265.863 147.53C265.362 146.969 265.112 146.213 265.112 145.262V142.934C265.112 141.973 265.362 141.212 265.863 140.652C266.364 140.091 267.029 139.811 267.86 139.811C268.541 139.811 269.082 140.001 269.482 140.381C269.883 140.752 270.083 141.262 270.083 141.913L269.738 141.538H270.113L270.068 139.615V137.258H271.69V148.221H270.083V146.644H269.738L270.083 146.269C270.083 146.919 269.883 147.435 269.482 147.815C269.082 148.186 268.541 148.371 267.86 148.371ZM268.416 146.959C268.927 146.959 269.327 146.804 269.618 146.494C269.918 146.173 270.068 145.733 270.068 145.172V143.01C270.068 142.449 269.918 142.013 269.618 141.703C269.327 141.383 268.927 141.222 268.416 141.222C267.885 141.222 267.47 141.378 267.17 141.688C266.869 141.988 266.719 142.429 266.719 143.01V145.172C266.719 145.753 266.869 146.198 267.17 146.509C267.47 146.809 267.885 146.959 268.416 146.959ZM280.23 150.023C278.758 149.653 277.617 148.957 276.806 147.936C275.995 146.904 275.589 145.648 275.589 144.166V141.463C275.589 140.491 275.774 139.61 276.145 138.819C276.525 138.028 277.061 137.358 277.752 136.807C278.453 136.246 279.279 135.846 280.23 135.605V137.167C279.609 137.318 279.073 137.593 278.623 137.993C278.172 138.384 277.822 138.874 277.571 139.465C277.331 140.056 277.211 140.722 277.211 141.463V144.166C277.211 144.887 277.331 145.543 277.571 146.133C277.822 146.724 278.172 147.215 278.623 147.605C279.073 147.986 279.609 148.251 280.23 148.401V150.023ZM283.678 150.023V148.401C284.299 148.251 284.835 147.986 285.285 147.605C285.736 147.215 286.081 146.724 286.321 146.133C286.572 145.543 286.697 144.887 286.697 144.166V141.463C286.697 140.722 286.572 140.056 286.321 139.465C286.081 138.874 285.736 138.384 285.285 137.993C284.835 137.593 284.299 137.318 283.678 137.167V135.605C284.639 135.846 285.465 136.246 286.156 136.807C286.847 137.358 287.378 138.028 287.748 138.819C288.129 139.61 288.319 140.491 288.319 141.463V144.166C288.319 145.648 287.913 146.904 287.102 147.936C286.291 148.957 285.15 149.653 283.678 150.023ZM196.405 168.371C196.004 168.371 195.684 168.256 195.444 168.026C195.203 167.785 195.083 167.465 195.083 167.065C195.083 166.654 195.203 166.329 195.444 166.088C195.684 165.838 196.004 165.713 196.405 165.713C196.815 165.713 197.136 165.838 197.366 166.088C197.606 166.329 197.726 166.654 197.726 167.065C197.726 167.465 197.606 167.785 197.366 168.026C197.136 168.256 196.815 168.371 196.405 168.371ZM205.41 168.371C204.739 168.371 204.148 168.241 203.638 167.981C203.137 167.71 202.752 167.335 202.481 166.854C202.211 166.374 202.076 165.813 202.076 165.172V163.01C202.076 162.359 202.211 161.798 202.481 161.327C202.752 160.847 203.137 160.476 203.638 160.216C204.148 159.946 204.739 159.811 205.41 159.811C206.091 159.811 206.681 159.946 207.182 160.216C207.683 160.476 208.068 160.847 208.339 161.327C208.609 161.798 208.744 162.359 208.744 163.01V164.481H203.638V165.172C203.638 165.783 203.788 166.249 204.088 166.569C204.399 166.889 204.844 167.05 205.425 167.05C205.896 167.05 206.276 166.969 206.566 166.809C206.857 166.639 207.037 166.394 207.107 166.073H208.714C208.594 166.774 208.233 167.335 207.633 167.755C207.032 168.166 206.291 168.371 205.41 168.371ZM207.182 163.505V162.995C207.182 162.394 207.032 161.928 206.732 161.598C206.431 161.267 205.991 161.102 205.41 161.102C204.839 161.102 204.399 161.267 204.088 161.598C203.788 161.928 203.638 162.399 203.638 163.01V163.385L207.302 163.37L207.182 163.505ZM210.796 168.221V159.961H212.147V161.012H212.448L212.222 161.327C212.222 160.867 212.348 160.501 212.598 160.231C212.848 159.951 213.184 159.811 213.604 159.811C214.055 159.811 214.4 159.986 214.64 160.336C214.891 160.687 215.016 161.167 215.016 161.778L214.655 161.012H215.226L214.986 161.327C214.986 160.867 215.111 160.501 215.361 160.231C215.622 159.951 215.967 159.811 216.398 159.811C216.908 159.811 217.309 160.006 217.599 160.396C217.889 160.777 218.035 161.287 218.035 161.928V168.221H216.593V161.973C216.593 161.663 216.523 161.423 216.383 161.252C216.252 161.082 216.062 160.997 215.812 160.997C215.562 160.997 215.366 161.082 215.226 161.252C215.096 161.413 215.031 161.648 215.031 161.958V168.221H213.814V161.973C213.814 161.653 213.744 161.413 213.604 161.252C213.464 161.082 213.264 160.997 213.003 160.997C212.753 160.997 212.563 161.082 212.433 161.252C212.313 161.413 212.252 161.648 212.252 161.958V168.221H210.796ZM222.594 168.371C221.733 168.371 221.052 168.151 220.552 167.71C220.061 167.26 219.816 166.649 219.816 165.878C219.816 165.097 220.076 164.486 220.597 164.046C221.127 163.595 221.853 163.37 222.774 163.37H225.072V162.604C225.072 162.154 224.932 161.803 224.652 161.553C224.371 161.302 223.976 161.177 223.465 161.177C223.015 161.177 222.639 161.277 222.339 161.478C222.039 161.668 221.863 161.923 221.813 162.244H220.221C220.311 161.503 220.652 160.912 221.243 160.471C221.843 160.031 222.599 159.811 223.51 159.811C224.492 159.811 225.268 160.061 225.838 160.562C226.409 161.052 226.694 161.723 226.694 162.574V168.221H225.117V166.704H224.847L225.117 166.404C225.117 167.004 224.887 167.485 224.427 167.845C223.966 168.196 223.355 168.371 222.594 168.371ZM223.075 167.125C223.656 167.125 224.131 166.979 224.502 166.689C224.882 166.389 225.072 166.008 225.072 165.548V164.466H222.805C222.384 164.466 222.049 164.581 221.798 164.812C221.558 165.042 221.438 165.357 221.438 165.758C221.438 166.178 221.583 166.514 221.873 166.764C222.164 167.004 222.564 167.125 223.075 167.125ZM229.136 168.221V166.749H232.035V161.433H229.512V159.961H233.612V166.749H236.27V168.221H229.136ZM232.666 158.534C232.315 158.534 232.035 158.444 231.825 158.264C231.614 158.074 231.509 157.823 231.509 157.513C231.509 157.192 231.614 156.942 231.825 156.762C232.035 156.572 232.315 156.477 232.666 156.477C233.016 156.477 233.297 156.572 233.507 156.762C233.717 156.942 233.822 157.192 233.822 157.513C233.822 157.823 233.717 158.074 233.507 158.264C233.297 158.444 233.016 158.534 232.666 158.534ZM242.617 168.221C242.106 168.221 241.661 168.121 241.28 167.921C240.9 167.71 240.6 167.415 240.379 167.034C240.169 166.654 240.064 166.213 240.064 165.713V158.729H237.361V157.258H241.686V165.713C241.686 166.033 241.776 166.289 241.956 166.479C242.137 166.659 242.382 166.749 242.692 166.749H245.245V168.221H242.617ZM253.214 170.023C251.742 169.653 250.601 168.957 249.79 167.936C248.979 166.904 248.574 165.648 248.574 164.166V161.463C248.574 160.491 248.759 159.61 249.129 158.819C249.51 158.028 250.045 157.358 250.736 156.807C251.437 156.246 252.263 155.846 253.214 155.605V157.167C252.593 157.318 252.058 157.593 251.607 157.993C251.157 158.384 250.806 158.874 250.556 159.465C250.316 160.056 250.196 160.722 250.196 161.463V164.166C250.196 164.887 250.316 165.543 250.556 166.133C250.806 166.724 251.157 167.215 251.607 167.605C252.058 167.986 252.593 168.251 253.214 168.401V170.023ZM256.663 170.023V168.401C257.283 168.251 257.819 167.986 258.27 167.605C258.72 167.215 259.066 166.724 259.306 166.133C259.556 165.543 259.681 164.887 259.681 164.166V161.463C259.681 160.722 259.556 160.056 259.306 159.465C259.066 158.874 258.72 158.384 258.27 157.993C257.819 157.593 257.283 157.318 256.663 157.167V155.605C257.624 155.846 258.45 156.246 259.141 156.807C259.831 157.358 260.362 158.028 260.733 158.819C261.113 159.61 261.303 160.491 261.303 161.463V164.166C261.303 165.648 260.898 166.904 260.087 167.936C259.276 168.957 258.134 169.653 256.663 170.023ZM196.405 188.371C196.004 188.371 195.684 188.256 195.444 188.026C195.203 187.785 195.083 187.465 195.083 187.065C195.083 186.654 195.203 186.329 195.444 186.088C195.684 185.838 196.004 185.713 196.405 185.713C196.815 185.713 197.136 185.838 197.366 186.088C197.606 186.329 197.726 186.654 197.726 187.065C197.726 187.465 197.606 187.785 197.366 188.026C197.136 188.256 196.815 188.371 196.405 188.371ZM201.791 188.221V179.961H203.142V181.012H203.443L203.217 181.327C203.217 180.867 203.342 180.501 203.593 180.231C203.843 179.951 204.178 179.811 204.599 179.811C205.049 179.811 205.395 179.986 205.635 180.336C205.886 180.687 206.011 181.167 206.011 181.778L205.65 181.012H206.221L205.981 181.327C205.981 180.867 206.106 180.501 206.356 180.231C206.616 179.951 206.962 179.811 207.392 179.811C207.903 179.811 208.303 180.006 208.594 180.396C208.884 180.777 209.029 181.287 209.029 181.928V188.221H207.588V181.973C207.588 181.663 207.518 181.423 207.377 181.252C207.247 181.082 207.057 180.997 206.807 180.997C206.556 180.997 206.361 181.082 206.221 181.252C206.091 181.413 206.026 181.648 206.026 181.958V188.221H204.809V181.973C204.809 181.653 204.739 181.413 204.599 181.252C204.459 181.082 204.259 180.997 203.998 180.997C203.748 180.997 203.558 181.082 203.428 181.252C203.307 181.413 203.247 181.648 203.247 181.958V188.221H201.791ZM213.589 188.371C212.728 188.371 212.047 188.151 211.547 187.71C211.056 187.26 210.811 186.649 210.811 185.878C210.811 185.097 211.071 184.486 211.592 184.046C212.122 183.595 212.848 183.37 213.769 183.37H216.067V182.604C216.067 182.154 215.927 181.803 215.647 181.553C215.366 181.302 214.971 181.177 214.46 181.177C214.01 181.177 213.634 181.277 213.334 181.478C213.033 181.668 212.858 181.923 212.808 182.244H211.216C211.306 181.503 211.647 180.912 212.237 180.471C212.838 180.031 213.594 179.811 214.505 179.811C215.486 179.811 216.262 180.061 216.833 180.562C217.404 181.052 217.689 181.723 217.689 182.574V188.221H216.112V186.704H215.842L216.112 186.404C216.112 187.004 215.882 187.485 215.421 187.845C214.961 188.196 214.35 188.371 213.589 188.371ZM214.07 187.125C214.65 187.125 215.126 186.979 215.496 186.689C215.877 186.389 216.067 186.008 216.067 185.548V184.466H213.799C213.379 184.466 213.043 184.581 212.793 184.812C212.553 185.042 212.433 185.357 212.433 185.758C212.433 186.178 212.578 186.514 212.868 186.764C213.159 187.004 213.559 187.125 214.07 187.125ZM219.561 188.221L222.459 183.956L219.741 179.961H221.603L223.06 182.244C223.13 182.364 223.2 182.494 223.27 182.634C223.34 182.764 223.395 182.874 223.435 182.965C223.465 182.874 223.515 182.764 223.585 182.634C223.656 182.494 223.726 182.364 223.796 182.244L225.253 179.961H227.115L224.396 183.971L227.28 188.221H225.418L223.811 185.743C223.741 185.623 223.671 185.488 223.601 185.337C223.53 185.187 223.475 185.067 223.435 184.977C223.395 185.067 223.335 185.187 223.255 185.337C223.185 185.488 223.11 185.623 223.03 185.743L221.408 188.221H219.561ZM229.557 188.221V177.258H231.179V186.734H235.97V188.221H229.557ZM241.431 188.371C240.76 188.371 240.169 188.241 239.658 187.981C239.158 187.71 238.772 187.335 238.502 186.854C238.232 186.374 238.097 185.813 238.097 185.172V183.01C238.097 182.359 238.232 181.798 238.502 181.327C238.772 180.847 239.158 180.476 239.658 180.216C240.169 179.946 240.76 179.811 241.431 179.811C242.111 179.811 242.702 179.946 243.203 180.216C243.703 180.476 244.089 180.847 244.359 181.327C244.63 181.798 244.765 182.359 244.765 183.01V184.481H239.658V185.172C239.658 185.783 239.809 186.249 240.109 186.569C240.419 186.889 240.865 187.05 241.446 187.05C241.916 187.05 242.297 186.969 242.587 186.809C242.877 186.639 243.058 186.394 243.128 186.073H244.735C244.615 186.774 244.254 187.335 243.653 187.755C243.053 188.166 242.312 188.371 241.431 188.371ZM243.203 183.505V182.995C243.203 182.394 243.053 181.928 242.752 181.598C242.452 181.267 242.011 181.102 241.431 181.102C240.86 181.102 240.419 181.267 240.109 181.598C239.809 181.928 239.658 182.399 239.658 183.01V183.385L243.323 183.37L243.203 183.505ZM247.192 188.221V179.961H248.799V181.538H249.189L248.799 181.913C248.799 181.252 248.994 180.737 249.385 180.366C249.775 179.996 250.316 179.811 251.007 179.811C251.828 179.811 252.483 180.076 252.974 180.607C253.465 181.127 253.71 181.833 253.71 182.724V188.221H252.088V182.904C252.088 182.364 251.943 181.948 251.652 181.658C251.362 181.368 250.966 181.222 250.466 181.222C249.955 181.222 249.55 181.378 249.249 181.688C248.959 181.988 248.814 182.429 248.814 183.01V188.221H247.192ZM257.278 190.924V189.528H259.816C260.237 189.528 260.547 189.427 260.748 189.227C260.958 189.027 261.063 188.732 261.063 188.341V187.515L261.093 185.983H260.748L261.078 185.683C261.078 186.314 260.878 186.809 260.477 187.17C260.087 187.53 259.556 187.71 258.885 187.71C258.034 187.71 257.363 187.43 256.873 186.869C256.382 186.309 256.137 185.553 256.137 184.602V182.919C256.137 181.968 256.382 181.212 256.873 180.652C257.363 180.091 258.034 179.811 258.885 179.811C259.556 179.811 260.087 179.996 260.477 180.366C260.878 180.727 261.078 181.222 261.078 181.853L260.748 181.538H261.078L261.063 179.961H262.67V188.371C262.67 189.162 262.42 189.783 261.919 190.233C261.418 190.694 260.723 190.924 259.831 190.924H257.278ZM259.411 186.314C259.922 186.314 260.322 186.158 260.612 185.848C260.913 185.528 261.063 185.087 261.063 184.526V183.01C261.063 182.449 260.913 182.013 260.612 181.703C260.322 181.383 259.922 181.222 259.411 181.222C258.88 181.222 258.47 181.378 258.179 181.688C257.899 181.988 257.759 182.429 257.759 183.01V184.526C257.759 185.097 257.899 185.538 258.179 185.848C258.47 186.158 258.88 186.314 259.411 186.314ZM269.347 188.221C268.596 188.221 268.011 188.016 267.59 187.605C267.17 187.195 266.959 186.624 266.959 185.893V181.433H264.677V179.961H266.959V177.633H268.581V179.961H271.81V181.433H268.581V185.893C268.581 186.464 268.857 186.749 269.407 186.749H271.66V188.221H269.347ZM274.207 188.221V177.258H275.829V179.961L275.814 181.538H276.205L275.814 181.913C275.814 181.252 276.01 180.737 276.4 180.366C276.791 179.996 277.331 179.811 278.022 179.811C278.843 179.811 279.499 180.076 279.989 180.607C280.48 181.127 280.725 181.833 280.725 182.724V188.221H279.103V182.904C279.103 182.364 278.958 181.943 278.668 181.643C278.377 181.343 277.982 181.192 277.481 181.192C276.971 181.192 276.565 181.353 276.265 181.673C275.975 181.983 275.829 182.429 275.829 183.01V188.221H274.207ZM289.235 190.023C287.763 189.653 286.622 188.957 285.811 187.936C285 186.904 284.594 185.648 284.594 184.166V181.463C284.594 180.491 284.779 179.61 285.15 178.819C285.53 178.028 286.066 177.358 286.757 176.807C287.458 176.246 288.284 175.846 289.235 175.605V177.167C288.614 177.318 288.079 177.593 287.628 177.993C287.177 178.384 286.827 178.874 286.577 179.465C286.336 180.056 286.216 180.722 286.216 181.463V184.166C286.216 184.887 286.336 185.543 286.577 186.133C286.827 186.724 287.177 187.215 287.628 187.605C288.079 187.986 288.614 188.251 289.235 188.401V190.023ZM295.432 188.371C294.48 188.371 293.71 188.131 293.119 187.65C292.528 187.16 292.198 186.504 292.128 185.683H293.735C293.785 186.083 293.955 186.394 294.245 186.614C294.536 186.834 294.936 186.944 295.447 186.944C296.017 186.944 296.448 186.794 296.738 186.494C297.039 186.183 297.189 185.753 297.189 185.202V184.136C297.189 183.575 297.044 183.145 296.753 182.844C296.463 182.534 296.032 182.379 295.462 182.379C295.101 182.379 294.791 182.464 294.531 182.634C294.27 182.794 294.08 183.02 293.96 183.31H292.353L292.428 177.258H298.405V178.729H293.975L293.945 182.138H294.365L293.93 182.529C293.93 182.058 294.115 181.688 294.486 181.418C294.856 181.147 295.352 181.012 295.972 181.012C296.863 181.012 297.554 181.287 298.045 181.838C298.545 182.379 298.796 183.145 298.796 184.136V185.202C298.796 186.173 298.5 186.944 297.91 187.515C297.319 188.086 296.493 188.371 295.432 188.371ZM304.467 188.371C303.776 188.371 303.175 188.236 302.665 187.966C302.164 187.695 301.774 187.32 301.493 186.839C301.213 186.349 301.073 185.778 301.073 185.127V180.351C301.073 179.69 301.208 179.12 301.478 178.639C301.759 178.159 302.154 177.783 302.665 177.513C303.175 177.242 303.776 177.107 304.467 177.107C305.168 177.107 305.768 177.242 306.269 177.513C306.78 177.783 307.17 178.159 307.441 178.639C307.721 179.12 307.861 179.69 307.861 180.351V185.127C307.861 185.778 307.721 186.349 307.441 186.839C307.16 187.32 306.765 187.695 306.254 187.966C305.753 188.236 305.158 188.371 304.467 188.371ZM304.467 186.974C305.028 186.974 305.473 186.804 305.804 186.464C306.144 186.123 306.314 185.678 306.314 185.127V180.351C306.314 179.801 306.144 179.355 305.804 179.015C305.473 178.674 305.028 178.504 304.467 178.504C303.906 178.504 303.456 178.674 303.115 179.015C302.785 179.355 302.62 179.801 302.62 180.351V185.127C302.62 185.678 302.785 186.123 303.115 186.464C303.456 186.804 303.906 186.974 304.467 186.974ZM304.467 183.67C304.187 183.67 303.956 183.58 303.776 183.4C303.606 183.22 303.521 182.985 303.521 182.694C303.521 182.414 303.606 182.189 303.776 182.018C303.956 181.838 304.187 181.748 304.467 181.748C304.747 181.748 304.972 181.838 305.143 182.018C305.323 182.189 305.413 182.414 305.413 182.694C305.413 182.985 305.323 183.22 305.143 183.4C304.972 183.58 304.747 183.67 304.467 183.67ZM310.694 190.023V188.401C311.314 188.251 311.85 187.986 312.301 187.605C312.751 187.215 313.097 186.724 313.337 186.133C313.587 185.543 313.712 184.887 313.712 184.166V181.463C313.712 180.722 313.587 180.056 313.337 179.465C313.097 178.874 312.751 178.384 312.301 177.993C311.85 177.593 311.314 177.318 310.694 177.167V175.605C311.655 175.846 312.481 176.246 313.172 176.807C313.863 177.358 314.393 178.028 314.764 178.819C315.144 179.61 315.334 180.491 315.334 181.463V184.166C315.334 185.648 314.929 186.904 314.118 187.936C313.307 188.957 312.165 189.653 310.694 190.023ZM196.405 208.371C196.004 208.371 195.684 208.256 195.444 208.026C195.203 207.785 195.083 207.465 195.083 207.065C195.083 206.654 195.203 206.329 195.444 206.088C195.684 205.838 196.004 205.713 196.405 205.713C196.815 205.713 197.136 205.838 197.366 206.088C197.606 206.329 197.726 206.654 197.726 207.065C197.726 207.465 197.606 207.785 197.366 208.026C197.136 208.256 196.815 208.371 196.405 208.371ZM205.41 208.371C204.739 208.371 204.148 208.241 203.638 207.981C203.137 207.71 202.752 207.335 202.481 206.854C202.211 206.374 202.076 205.813 202.076 205.172V203.01C202.076 202.359 202.211 201.798 202.481 201.327C202.752 200.847 203.137 200.476 203.638 200.216C204.148 199.946 204.739 199.811 205.41 199.811C206.091 199.811 206.681 199.946 207.182 200.216C207.683 200.476 208.068 200.847 208.339 201.327C208.609 201.798 208.744 202.359 208.744 203.01V204.481H203.638V205.172C203.638 205.783 203.788 206.249 204.088 206.569C204.399 206.889 204.844 207.05 205.425 207.05C205.896 207.05 206.276 206.969 206.566 206.809C206.857 206.639 207.037 206.394 207.107 206.073H208.714C208.594 206.774 208.233 207.335 207.633 207.755C207.032 208.166 206.291 208.371 205.41 208.371ZM207.182 203.505V202.995C207.182 202.394 207.032 201.928 206.732 201.598C206.431 201.267 205.991 201.102 205.41 201.102C204.839 201.102 204.399 201.267 204.088 201.598C203.788 201.928 203.638 202.399 203.638 203.01V203.385L207.302 203.37L207.182 203.505ZM211.171 208.221V199.961H212.778V201.538H213.169L212.778 201.913C212.778 201.252 212.973 200.737 213.364 200.366C213.754 199.996 214.295 199.811 214.986 199.811C215.807 199.811 216.463 200.076 216.953 200.607C217.444 201.127 217.689 201.833 217.689 202.724V208.221H216.067V202.904C216.067 202.364 215.922 201.948 215.632 201.658C215.341 201.368 214.946 201.222 214.445 201.222C213.935 201.222 213.529 201.378 213.229 201.688C212.938 201.988 212.793 202.429 212.793 203.01V208.221H211.171ZM222.835 208.371C222.004 208.371 221.338 208.091 220.837 207.53C220.337 206.969 220.086 206.213 220.086 205.262V202.934C220.086 201.973 220.337 201.212 220.837 200.652C221.338 200.091 222.004 199.811 222.835 199.811C223.515 199.811 224.056 200.001 224.457 200.381C224.857 200.752 225.057 201.262 225.057 201.913L224.712 201.538H225.087L225.042 199.615V197.258H226.664V208.221H225.057V206.644H224.712L225.057 206.269C225.057 206.919 224.857 207.435 224.457 207.815C224.056 208.186 223.515 208.371 222.835 208.371ZM223.39 206.959C223.901 206.959 224.301 206.804 224.592 206.494C224.892 206.173 225.042 205.733 225.042 205.172V203.01C225.042 202.449 224.892 202.013 224.592 201.703C224.301 201.383 223.901 201.222 223.39 201.222C222.86 201.222 222.444 201.378 222.144 201.688C221.843 201.988 221.693 202.429 221.693 203.01V205.172C221.693 205.753 221.843 206.198 222.144 206.509C222.444 206.809 222.86 206.959 223.39 206.959ZM232.471 208.371C231.73 208.371 231.094 208.251 230.563 208.011C230.033 207.76 229.622 207.41 229.332 206.959C229.041 206.499 228.896 205.953 228.896 205.322H230.503C230.503 205.823 230.678 206.218 231.029 206.509C231.379 206.789 231.865 206.929 232.486 206.929C233.066 206.929 233.522 206.789 233.852 206.509C234.183 206.229 234.348 205.843 234.348 205.352C234.348 204.942 234.233 204.586 234.002 204.286C233.782 203.986 233.462 203.781 233.041 203.67L231.66 203.265C230.859 203.035 230.238 202.644 229.797 202.093C229.367 201.533 229.151 200.867 229.151 200.096C229.151 199.495 229.287 198.97 229.557 198.519C229.827 198.069 230.213 197.718 230.713 197.468C231.214 197.217 231.805 197.092 232.486 197.092C233.487 197.092 234.288 197.363 234.888 197.903C235.499 198.444 235.81 199.17 235.82 200.081H234.198C234.198 199.6 234.042 199.225 233.732 198.955C233.432 198.674 233.006 198.534 232.456 198.534C231.925 198.534 231.509 198.664 231.209 198.925C230.909 199.175 230.758 199.53 230.758 199.991C230.758 200.401 230.869 200.757 231.089 201.057C231.319 201.358 231.645 201.568 232.065 201.688L233.462 202.108C234.263 202.329 234.878 202.719 235.309 203.28C235.74 203.841 235.955 204.511 235.955 205.292C235.955 205.903 235.81 206.444 235.519 206.914C235.229 207.375 234.823 207.735 234.303 207.996C233.782 208.246 233.171 208.371 232.471 208.371ZM242.332 208.221C241.581 208.221 240.995 208.016 240.575 207.605C240.154 207.195 239.944 206.624 239.944 205.893V201.433H237.661V199.961H239.944V197.633H241.566V199.961H244.795V201.433H241.566V205.893C241.566 206.464 241.841 206.749 242.392 206.749H244.645V208.221H242.332ZM247.462 208.221V199.961H249.024V201.538H249.415L248.919 202.514C248.919 201.623 249.114 200.952 249.505 200.501C249.895 200.041 250.476 199.811 251.247 199.811C252.128 199.811 252.824 200.086 253.334 200.637C253.855 201.177 254.115 201.923 254.115 202.874V203.43H252.448V203.01C252.448 202.419 252.298 201.968 251.998 201.658C251.707 201.338 251.297 201.177 250.766 201.177C250.236 201.177 249.82 201.338 249.52 201.658C249.229 201.978 249.084 202.429 249.084 203.01V208.221H247.462ZM256.152 208.221V206.749H259.051V201.433H256.527V199.961H260.627V206.749H263.286V208.221H256.152ZM259.681 198.534C259.331 198.534 259.051 198.444 258.84 198.264C258.63 198.074 258.525 197.823 258.525 197.513C258.525 197.192 258.63 196.942 258.84 196.762C259.051 196.572 259.331 196.477 259.681 196.477C260.032 196.477 260.312 196.572 260.522 196.762C260.733 196.942 260.838 197.192 260.838 197.513C260.838 197.823 260.733 198.074 260.522 198.264C260.312 198.444 260.032 198.534 259.681 198.534ZM265.202 208.221V199.961H266.809V201.538H267.2L266.809 201.913C266.809 201.252 267.004 200.737 267.395 200.366C267.785 199.996 268.326 199.811 269.017 199.811C269.838 199.811 270.494 200.076 270.984 200.607C271.475 201.127 271.72 201.833 271.72 202.724V208.221H270.098V202.904C270.098 202.364 269.953 201.948 269.663 201.658C269.372 201.368 268.977 201.222 268.476 201.222C267.966 201.222 267.56 201.378 267.26 201.688C266.969 201.988 266.824 202.429 266.824 203.01V208.221H265.202ZM275.289 210.924V209.528H277.827C278.247 209.528 278.558 209.427 278.758 209.227C278.968 209.027 279.073 208.732 279.073 208.341V207.515L279.103 205.983H278.758L279.088 205.683C279.088 206.314 278.888 206.809 278.488 207.17C278.097 207.53 277.566 207.71 276.896 207.71C276.045 207.71 275.374 207.43 274.883 206.869C274.393 206.309 274.147 205.553 274.147 204.602V202.919C274.147 201.968 274.393 201.212 274.883 200.652C275.374 200.091 276.045 199.811 276.896 199.811C277.566 199.811 278.097 199.996 278.488 200.366C278.888 200.727 279.088 201.222 279.088 201.853L278.758 201.538H279.088L279.073 199.961H280.68V208.371C280.68 209.162 280.43 209.783 279.929 210.233C279.429 210.694 278.733 210.924 277.842 210.924H275.289ZM277.421 206.314C277.932 206.314 278.332 206.158 278.623 205.848C278.923 205.528 279.073 205.087 279.073 204.526V203.01C279.073 202.449 278.923 202.013 278.623 201.703C278.332 201.383 277.932 201.222 277.421 201.222C276.891 201.222 276.48 201.378 276.19 201.688C275.909 201.988 275.769 202.429 275.769 203.01V204.526C275.769 205.097 275.909 205.538 276.19 205.848C276.48 206.158 276.891 206.314 277.421 206.314ZM289.235 210.023C287.763 209.653 286.622 208.957 285.811 207.936C285 206.904 284.594 205.648 284.594 204.166V201.463C284.594 200.491 284.779 199.61 285.15 198.819C285.53 198.028 286.066 197.358 286.757 196.807C287.458 196.246 288.284 195.846 289.235 195.605V197.167C288.614 197.318 288.079 197.593 287.628 197.993C287.177 198.384 286.827 198.874 286.577 199.465C286.336 200.056 286.216 200.722 286.216 201.463V204.166C286.216 204.887 286.336 205.543 286.577 206.133C286.827 206.724 287.177 207.215 287.628 207.605C288.079 207.986 288.614 208.251 289.235 208.401V210.023ZM292.683 210.023V208.401C293.304 208.251 293.84 207.986 294.29 207.605C294.741 207.215 295.086 206.724 295.327 206.133C295.577 205.543 295.702 204.887 295.702 204.166V201.463C295.702 200.722 295.577 200.056 295.327 199.465C295.086 198.874 294.741 198.384 294.29 197.993C293.84 197.593 293.304 197.318 292.683 197.167V195.605C293.644 195.846 294.47 196.246 295.161 196.807C295.852 197.358 296.383 198.028 296.753 198.819C297.134 199.61 297.324 200.491 297.324 201.463V204.166C297.324 205.648 296.918 206.904 296.107 207.936C295.296 208.957 294.155 209.653 292.683 210.023ZM302.409 210.624L303.611 205.953H305.773L303.821 210.624H302.409ZM304.317 202.199C303.966 202.199 303.681 202.088 303.461 201.868C303.24 201.638 303.13 201.348 303.13 200.997C303.13 200.657 303.24 200.376 303.461 200.156C303.691 199.926 303.976 199.811 304.317 199.811H304.617C304.957 199.811 305.238 199.926 305.458 200.156C305.688 200.376 305.804 200.657 305.804 200.997C305.804 201.348 305.693 201.638 305.473 201.868C305.253 202.088 304.967 202.199 304.617 202.199H304.317Z" fill="white"/>
<path d="M286.502 128.371C285.761 128.371 285.125 128.251 284.594 128.011C284.064 127.76 283.653 127.41 283.363 126.959C283.072 126.499 282.927 125.953 282.927 125.322H284.534C284.534 125.823 284.709 126.218 285.06 126.509C285.41 126.789 285.896 126.929 286.517 126.929C287.097 126.929 287.553 126.789 287.883 126.509C288.214 126.229 288.379 125.843 288.379 125.352C288.379 124.942 288.264 124.586 288.033 124.286C287.813 123.986 287.493 123.781 287.072 123.67L285.691 123.265C284.89 123.035 284.269 122.644 283.828 122.093C283.398 121.533 283.183 120.867 283.183 120.096C283.183 119.495 283.318 118.97 283.588 118.519C283.858 118.069 284.244 117.718 284.744 117.468C285.245 117.217 285.836 117.092 286.517 117.092C287.518 117.092 288.319 117.363 288.92 117.903C289.53 118.444 289.841 119.17 289.851 120.081H288.229C288.229 119.6 288.074 119.225 287.763 118.955C287.463 118.674 287.037 118.534 286.487 118.534C285.956 118.534 285.54 118.664 285.24 118.925C284.94 119.175 284.789 119.53 284.789 119.991C284.789 120.401 284.9 120.757 285.12 121.057C285.35 121.358 285.676 121.568 286.096 121.688L287.493 122.108C288.294 122.329 288.91 122.719 289.34 123.28C289.771 123.841 289.986 124.511 289.986 125.292C289.986 125.903 289.841 126.444 289.55 126.914C289.26 127.375 288.854 127.735 288.334 127.996C287.813 128.246 287.202 128.371 286.502 128.371ZM292.218 130.924V119.961H293.825V121.538H294.17L293.825 121.913C293.825 121.262 294.025 120.752 294.425 120.381C294.836 120.001 295.382 119.811 296.062 119.811C296.893 119.811 297.554 120.091 298.045 120.652C298.545 121.202 298.796 121.958 298.796 122.919V125.247C298.796 125.888 298.681 126.444 298.45 126.914C298.23 127.375 297.915 127.735 297.504 127.996C297.104 128.246 296.623 128.371 296.062 128.371C295.392 128.371 294.851 128.186 294.44 127.815C294.03 127.435 293.825 126.919 293.825 126.269L294.17 126.644H293.795L293.84 128.566V130.924H292.218ZM295.507 126.959C296.037 126.959 296.448 126.809 296.738 126.509C297.039 126.198 297.189 125.753 297.189 125.172V123.01C297.189 122.429 297.039 121.988 296.738 121.688C296.448 121.378 296.037 121.222 295.507 121.222C294.996 121.222 294.591 121.383 294.29 121.703C293.99 122.013 293.84 122.449 293.84 123.01V125.172C293.84 125.733 293.99 126.173 294.29 126.494C294.591 126.804 294.996 126.959 295.507 126.959ZM303.641 128.371C302.78 128.371 302.099 128.151 301.598 127.71C301.108 127.26 300.862 126.649 300.862 125.878C300.862 125.097 301.123 124.486 301.643 124.046C302.174 123.595 302.9 123.37 303.821 123.37H306.119V122.604C306.119 122.154 305.979 121.803 305.698 121.553C305.418 121.302 305.023 121.177 304.512 121.177C304.061 121.177 303.686 121.277 303.386 121.478C303.085 121.668 302.91 121.923 302.86 122.244H301.268C301.358 121.503 301.698 120.912 302.289 120.471C302.89 120.031 303.646 119.811 304.557 119.811C305.538 119.811 306.314 120.061 306.885 120.562C307.456 121.052 307.741 121.723 307.741 122.574V128.221H306.164V126.704H305.894L306.164 126.404C306.164 127.004 305.934 127.485 305.473 127.845C305.013 128.196 304.402 128.371 303.641 128.371ZM304.121 127.125C304.702 127.125 305.178 126.979 305.548 126.689C305.929 126.389 306.119 126.008 306.119 125.548V124.466H303.851C303.431 124.466 303.095 124.581 302.845 124.812C302.605 125.042 302.484 125.357 302.484 125.758C302.484 126.178 302.63 126.514 302.92 126.764C303.21 127.004 303.611 127.125 304.121 127.125ZM310.498 128.221V119.961H312.06V121.538H312.451L311.955 122.514C311.955 121.623 312.15 120.952 312.541 120.501C312.931 120.041 313.512 119.811 314.283 119.811C315.164 119.811 315.86 120.086 316.371 120.637C316.891 121.177 317.152 121.923 317.152 122.874V123.43H315.485V123.01C315.485 122.419 315.334 121.968 315.034 121.658C314.744 121.338 314.333 121.177 313.802 121.177C313.272 121.177 312.856 121.338 312.556 121.658C312.266 121.978 312.12 122.429 312.12 123.01V128.221H310.498ZM319.278 128.221V117.258H320.9V123.28H322.357L324.55 119.961H326.382L323.754 123.926L326.427 128.221H324.565L322.357 124.677H320.9V128.221H319.278Z" fill="#F87835"/>
</g>
</g>
<rect x="301" y="15" width="82" height="25" rx="12.5" fill="#1E1E1E"/>
<path d="M315.54 24.05V29.06C315.54 29.68 315.35 30.17 314.97 30.53C314.597 30.89 314.103 31.07 313.49 31.07C312.877 31.07 312.38 30.89 312 30.53C311.627 30.17 311.44 29.68 311.44 29.06H312.59C312.597 29.3667 312.673 29.61 312.82 29.79C312.973 29.97 313.197 30.06 313.49 30.06C313.783 30.06 314.007 29.97 314.16 29.79C314.313 29.6033 314.39 29.36 314.39 29.06V24.05H315.54ZM317.015 28.22C317.015 27.6667 317.128 27.1767 317.355 26.75C317.588 26.3233 317.901 25.9933 318.295 25.76C318.695 25.52 319.135 25.4 319.615 25.4C320.048 25.4 320.425 25.4867 320.745 25.66C321.071 25.8267 321.331 26.0367 321.525 26.29V25.49H322.675V31H321.525V30.18C321.331 30.44 321.068 30.6567 320.735 30.83C320.401 31.0033 320.021 31.09 319.595 31.09C319.121 31.09 318.688 30.97 318.295 30.73C317.901 30.4833 317.588 30.1433 317.355 29.71C317.128 29.27 317.015 28.7733 317.015 28.22ZM321.525 28.24C321.525 27.86 321.445 27.53 321.285 27.25C321.131 26.97 320.928 26.7567 320.675 26.61C320.421 26.4633 320.148 26.39 319.855 26.39C319.561 26.39 319.288 26.4633 319.035 26.61C318.781 26.75 318.575 26.96 318.415 27.24C318.261 27.5133 318.185 27.84 318.185 28.22C318.185 28.6 318.261 28.9333 318.415 29.22C318.575 29.5067 318.781 29.7267 319.035 29.88C319.295 30.0267 319.568 30.1 319.855 30.1C320.148 30.1 320.421 30.0267 320.675 29.88C320.928 29.7333 321.131 29.52 321.285 29.24C321.445 28.9533 321.525 28.62 321.525 28.24ZM326.302 29.98L327.862 25.49H329.072L326.972 31H325.612L323.522 25.49H324.742L326.302 29.98ZM329.554 28.22C329.554 27.6667 329.667 27.1767 329.894 26.75C330.127 26.3233 330.44 25.9933 330.834 25.76C331.234 25.52 331.674 25.4 332.154 25.4C332.587 25.4 332.964 25.4867 333.284 25.66C333.61 25.8267 333.87 26.0367 334.064 26.29V25.49H335.214V31H334.064V30.18C333.87 30.44 333.607 30.6567 333.274 30.83C332.94 31.0033 332.56 31.09 332.134 31.09C331.66 31.09 331.227 30.97 330.834 30.73C330.44 30.4833 330.127 30.1433 329.894 29.71C329.667 29.27 329.554 28.7733 329.554 28.22ZM334.064 28.24C334.064 27.86 333.984 27.53 333.824 27.25C333.67 26.97 333.467 26.7567 333.214 26.61C332.96 26.4633 332.687 26.39 332.394 26.39C332.1 26.39 331.827 26.4633 331.574 26.61C331.32 26.75 331.114 26.96 330.954 27.24C330.8 27.5133 330.724 27.84 330.724 28.22C330.724 28.6 330.8 28.9333 330.954 29.22C331.114 29.5067 331.32 29.7267 331.574 29.88C331.834 30.0267 332.107 30.1 332.394 30.1C332.687 30.1 332.96 30.0267 333.214 29.88C333.467 29.7333 333.67 29.52 333.824 29.24C333.984 28.9533 334.064 28.62 334.064 28.24ZM340.449 30.08H342.799V31H339.309V24.05H340.449V30.08ZM344.332 24.76C344.125 24.76 343.952 24.69 343.812 24.55C343.672 24.41 343.602 24.2367 343.602 24.03C343.602 23.8233 343.672 23.65 343.812 23.51C343.952 23.37 344.125 23.3 344.332 23.3C344.532 23.3 344.702 23.37 344.842 23.51C344.982 23.65 345.052 23.8233 345.052 24.03C345.052 24.2367 344.982 24.41 344.842 24.55C344.702 24.69 344.532 24.76 344.332 24.76ZM344.892 25.49V31H343.752V25.49H344.892ZM347.529 26.31C347.722 26.0433 347.985 25.8267 348.319 25.66C348.659 25.4867 349.035 25.4 349.449 25.4C349.935 25.4 350.375 25.5167 350.769 25.75C351.162 25.9833 351.472 26.3167 351.699 26.75C351.925 27.1767 352.039 27.6667 352.039 28.22C352.039 28.7733 351.925 29.27 351.699 29.71C351.472 30.1433 351.159 30.4833 350.759 30.73C350.365 30.97 349.929 31.09 349.449 31.09C349.022 31.09 348.642 31.0067 348.309 30.84C347.982 30.6733 347.722 30.46 347.529 30.2V31H346.389V23.6H347.529V26.31ZM350.879 28.22C350.879 27.84 350.799 27.5133 350.639 27.24C350.485 26.96 350.279 26.75 350.019 26.61C349.765 26.4633 349.492 26.39 349.199 26.39C348.912 26.39 348.639 26.4633 348.379 26.61C348.125 26.7567 347.919 26.97 347.759 27.25C347.605 27.53 347.529 27.86 347.529 28.24C347.529 28.62 347.605 28.9533 347.759 29.24C347.919 29.52 348.125 29.7333 348.379 29.88C348.639 30.0267 348.912 30.1 349.199 30.1C349.492 30.1 349.765 30.0267 350.019 29.88C350.279 29.7267 350.485 29.5067 350.639 29.22C350.799 28.9333 350.879 28.6 350.879 28.22ZM354.306 26.29C354.473 26.01 354.693 25.7933 354.966 25.64C355.246 25.48 355.576 25.4 355.956 25.4V26.58H355.666C355.219 26.58 354.879 26.6933 354.646 26.92C354.419 27.1467 354.306 27.54 354.306 28.1V31H353.166V25.49H354.306V26.29ZM356.624 28.22C356.624 27.6667 356.737 27.1767 356.964 26.75C357.197 26.3233 357.511 25.9933 357.904 25.76C358.304 25.52 358.744 25.4 359.224 25.4C359.657 25.4 360.034 25.4867 360.354 25.66C360.681 25.8267 360.941 26.0367 361.134 26.29V25.49H362.284V31H361.134V30.18C360.941 30.44 360.677 30.6567 360.344 30.83C360.011 31.0033 359.631 31.09 359.204 31.09C358.731 31.09 358.297 30.97 357.904 30.73C357.511 30.4833 357.197 30.1433 356.964 29.71C356.737 29.27 356.624 28.7733 356.624 28.22ZM361.134 28.24C361.134 27.86 361.054 27.53 360.894 27.25C360.741 26.97 360.537 26.7567 360.284 26.61C360.031 26.4633 359.757 26.39 359.464 26.39C359.171 26.39 358.897 26.4633 358.644 26.61C358.391 26.75 358.184 26.96 358.024 27.24C357.871 27.5133 357.794 27.84 357.794 28.22C357.794 28.6 357.871 28.9333 358.024 29.22C358.184 29.5067 358.391 29.7267 358.644 29.88C358.904 30.0267 359.177 30.1 359.464 30.1C359.757 30.1 360.031 30.0267 360.284 29.88C360.537 29.7333 360.741 29.52 360.894 29.24C361.054 28.9533 361.134 28.62 361.134 28.24ZM364.921 26.29C365.088 26.01 365.308 25.7933 365.581 25.64C365.861 25.48 366.191 25.4 366.571 25.4V26.58H366.281C365.835 26.58 365.495 26.6933 365.261 26.92C365.035 27.1467 364.921 27.54 364.921 28.1V31H363.781V25.49H364.921V26.29ZM372.579 25.49L369.199 33.59H368.019L369.139 30.91L366.969 25.49H368.239L369.789 29.69L371.399 25.49H372.579Z" fill="white"/>
</g>
<defs>
<filter id="filter0_d_67_2" x="-39.3313" y="-31.3313" width="787.528" height="389.104" filterUnits="userSpaceOnUse" color-interpolation-filters="sRGB">
<feFlood floodOpacity="0" result="BackgroundImageFix"/>
<feColorMatrix in="SourceAlpha" type="matrix" values="0 0 0 0 0 0 0 0 0 0 0 0 0 0 0 0 0 0 127 0" result="hardAlpha"/>
<feOffset/>
<feGaussianBlur stdDeviation="58.6656"/>
<feComposite in2="hardAlpha" operator="out"/>
<feColorMatrix type="matrix" values="0 0 0 0 0 0 0 0 0 0 0 0 0 0 0 0 0 0 0.2 0"/>
<feBlend mode="normal" in2="BackgroundImageFix" result="effect1_dropShadow_67_2"/>
<feBlend mode="normal" in="SourceGraphic" in2="effect1_dropShadow_67_2" result="shape"/>
</filter>
<filter id="filter1_d_67_2" x="77.3429" y="85.3429" width="554.02" height="155.756" filterUnits="userSpaceOnUse" color-interpolation-filters="sRGB">
<feFlood floodOpacity="0" result="BackgroundImageFix"/>
<feColorMatrix in="SourceAlpha" type="matrix" values="0 0 0 0 0 0 0 0 0 0 0 0 0 0 0 0 0 0 127 0" result="hardAlpha"/>
<feOffset/>
<feGaussianBlur stdDeviation="0.328528"/>
<feComposite in2="hardAlpha" operator="out"/>
<feColorMatrix type="matrix" values="0 0 0 0 0 0 0 0 0 0 0 0 0 0 0 0 0 0 0.15 0"/>
<feBlend mode="normal" in2="BackgroundImageFix" result="effect1_dropShadow_67_2"/>
<feBlend mode="normal" in="SourceGraphic" in2="effect1_dropShadow_67_2" result="shape"/>
</filter>
<linearGradient id="paint0_linear_67_2" x1="200" y1="0.5" x2="200" y2="300.5" gradientUnits="userSpaceOnUse">
<stop stop-color="#ECE9FE"/>
<stop offset="1" stop-color="#B4B1FD"/>
</linearGradient>
<clipPath id="clip0_67_2">
<rect width="400" height="300" fill="white" transform="translate(0 0.5)"/>
</clipPath>
</defs>
</svg>
