<svg width="400" height="300" viewBox="0 0 400 300" fill="none" xmlns="http://www.w3.org/2000/svg">
<rect width="400" height="300" fill="white"/>
<rect width="400" height="300" fill="#476AD9" fillOpacity="0.13"/>
<path d="M223.495 123.027C225.319 123.02 226.824 124.499 226.609 126.31C226.153 130.141 224.881 133.844 222.863 137.162C220.271 141.424 216.55 144.886 212.112 147.164C207.674 149.443 202.692 150.448 197.718 150.07C192.744 149.692 187.971 147.944 183.929 145.021C179.886 142.098 176.732 138.113 174.814 133.507C172.896 128.902 172.291 123.856 173.064 118.928C173.837 113.999 175.959 109.381 179.195 105.584C181.714 102.629 184.832 100.26 188.327 98.6275C189.98 97.8553 191.856 98.8217 192.421 100.556V100.556C192.986 102.291 192.02 104.132 190.399 104.969C188.051 106.182 185.951 107.843 184.223 109.87C181.779 112.738 180.175 116.228 179.591 119.952C179.007 123.675 179.464 127.488 180.913 130.968C182.362 134.448 184.746 137.458 187.8 139.667C190.854 141.876 194.46 143.196 198.219 143.482C201.977 143.768 205.742 143.008 209.095 141.287C212.448 139.565 215.26 136.95 217.218 133.729C218.602 131.454 219.522 128.939 219.937 126.33C220.224 124.528 221.67 123.034 223.495 123.027V123.027Z" fill="#476AD9"/>
<path d="M197.011 99.2665C196.819 97.4522 198.137 95.8044 199.961 95.8348C205.446 95.9264 210.802 97.6864 215.297 100.921C219.792 104.155 223.163 108.674 224.992 113.846C225.601 115.566 224.457 117.339 222.676 117.734V117.734C220.895 118.128 219.156 116.988 218.48 115.294C217.047 111.702 214.614 108.568 211.438 106.283C208.263 103.999 204.518 102.687 200.658 102.47C198.836 102.368 197.203 101.081 197.011 99.2665V99.2665Z" fill="#476AD9" fillOpacity="0.6"/>
<ellipse cx="200.054" cy="123.225" rx="6.7408" ry="6.7408" transform="rotate(35.1483 200.054 123.225)" fill="#476AD9"/>
<path d="M153.203 172.111V192.536H149.107V179.251L143.635 192.536H140.533L135.032 179.251V192.536H130.935V172.111H135.588L142.084 187.298L148.58 172.111H153.203ZM172.323 184.079C172.323 184.665 172.284 185.191 172.206 185.66H160.355C160.453 186.83 160.862 187.747 161.584 188.41C162.306 189.073 163.194 189.405 164.247 189.405C165.769 189.405 166.851 188.752 167.495 187.445H171.914C171.445 189.005 170.548 190.293 169.222 191.307C167.895 192.302 166.266 192.799 164.335 192.799C162.774 192.799 161.37 192.458 160.121 191.775C158.892 191.073 157.927 190.088 157.224 188.82C156.541 187.552 156.2 186.089 156.2 184.431C156.2 182.753 156.541 181.28 157.224 180.012C157.907 178.744 158.863 177.769 160.092 177.086C161.321 176.403 162.735 176.062 164.335 176.062C165.876 176.062 167.251 176.393 168.461 177.057C169.69 177.72 170.636 178.666 171.299 179.895C171.982 181.105 172.323 182.499 172.323 184.079ZM168.08 182.909C168.061 181.856 167.68 181.017 166.939 180.393C166.198 179.749 165.291 179.427 164.218 179.427C163.203 179.427 162.345 179.739 161.643 180.363C160.96 180.968 160.541 181.817 160.385 182.909H168.08ZM195.446 176.091C197.435 176.091 199.035 176.706 200.244 177.935C201.473 179.144 202.088 180.841 202.088 183.026V192.536H197.991V183.582C197.991 182.314 197.669 181.348 197.026 180.685C196.382 180.002 195.504 179.661 194.392 179.661C193.28 179.661 192.393 180.002 191.729 180.685C191.086 181.348 190.764 182.314 190.764 183.582V192.536H186.667V183.582C186.667 182.314 186.345 181.348 185.701 180.685C185.058 180.002 184.18 179.661 183.068 179.661C181.936 179.661 181.039 180.002 180.376 180.685C179.732 181.348 179.41 182.314 179.41 183.582V192.536H175.313V176.325H179.41V178.286C179.937 177.603 180.61 177.066 181.429 176.676C182.268 176.286 183.185 176.091 184.18 176.091C185.448 176.091 186.579 176.364 187.574 176.91C188.569 177.437 189.34 178.198 189.886 179.193C190.413 178.256 191.173 177.505 192.168 176.94C193.183 176.374 194.275 176.091 195.446 176.091ZM210.072 178.695C210.599 177.915 211.321 177.281 212.237 176.793C213.174 176.306 214.237 176.062 215.427 176.062C216.812 176.062 218.061 176.403 219.172 177.086C220.304 177.769 221.192 178.744 221.835 180.012C222.499 181.261 222.83 182.714 222.83 184.372C222.83 186.03 222.499 187.503 221.835 188.791C221.192 190.059 220.304 191.044 219.172 191.746C218.061 192.448 216.812 192.799 215.427 192.799C214.218 192.799 213.154 192.565 212.237 192.097C211.34 191.61 210.618 190.985 210.072 190.224V192.536H205.975V170.882H210.072V178.695ZM218.646 184.372C218.646 183.397 218.441 182.558 218.031 181.856C217.641 181.134 217.114 180.588 216.451 180.217C215.807 179.846 215.105 179.661 214.344 179.661C213.603 179.661 212.901 179.856 212.237 180.246C211.594 180.617 211.067 181.163 210.657 181.885C210.267 182.607 210.072 183.455 210.072 184.431C210.072 185.406 210.267 186.255 210.657 186.976C211.067 187.698 211.594 188.254 212.237 188.644C212.901 189.015 213.603 189.2 214.344 189.2C215.105 189.2 215.807 189.005 216.451 188.615C217.114 188.225 217.641 187.669 218.031 186.947C218.441 186.225 218.646 185.367 218.646 184.372ZM240.877 184.079C240.877 184.665 240.838 185.191 240.76 185.66H228.909C229.006 186.83 229.416 187.747 230.138 188.41C230.86 189.073 231.747 189.405 232.801 189.405C234.322 189.405 235.405 188.752 236.049 187.445H240.467C239.999 189.005 239.102 190.293 237.775 191.307C236.449 192.302 234.82 192.799 232.888 192.799C231.328 192.799 229.923 192.458 228.675 191.775C227.446 191.073 226.48 190.088 225.778 188.82C225.095 187.552 224.754 186.089 224.754 184.431C224.754 182.753 225.095 181.28 225.778 180.012C226.461 178.744 227.417 177.769 228.646 177.086C229.875 176.403 231.289 176.062 232.888 176.062C234.43 176.062 235.805 176.393 237.014 177.057C238.243 177.72 239.19 178.666 239.853 179.895C240.536 181.105 240.877 182.499 240.877 184.079ZM236.634 182.909C236.614 181.856 236.234 181.017 235.493 180.393C234.751 179.749 233.844 179.427 232.771 179.427C231.757 179.427 230.899 179.739 230.196 180.363C229.514 180.968 229.094 181.817 228.938 182.909H236.634ZM247.964 178.842C248.49 177.983 249.173 177.31 250.012 176.823C250.87 176.335 251.846 176.091 252.938 176.091V180.393H251.856C250.568 180.393 249.593 180.695 248.929 181.3C248.286 181.904 247.964 182.958 247.964 184.46V192.536H243.867V176.325H247.964V178.842ZM261.901 192.799C260.574 192.799 259.385 192.565 258.331 192.097C257.278 191.61 256.439 190.956 255.815 190.137C255.21 189.317 254.878 188.41 254.82 187.415H258.946C259.024 188.04 259.326 188.557 259.853 188.966C260.399 189.376 261.072 189.581 261.872 189.581C262.652 189.581 263.257 189.425 263.686 189.113C264.135 188.8 264.359 188.4 264.359 187.913C264.359 187.386 264.086 186.996 263.54 186.742C263.013 186.469 262.164 186.177 260.994 185.864C259.784 185.572 258.79 185.269 258.009 184.957C257.248 184.645 256.585 184.167 256.019 183.524C255.473 182.88 255.2 182.012 255.2 180.919C255.2 180.022 255.454 179.203 255.961 178.461C256.488 177.72 257.229 177.135 258.185 176.706C259.16 176.276 260.301 176.062 261.608 176.062C263.54 176.062 265.081 176.549 266.232 177.525C267.383 178.481 268.017 179.778 268.134 181.417H264.213C264.154 180.773 263.881 180.266 263.393 179.895C262.925 179.505 262.291 179.31 261.491 179.31C260.75 179.31 260.175 179.446 259.765 179.719C259.375 179.993 259.18 180.373 259.18 180.861C259.18 181.407 259.453 181.826 259.999 182.119C260.545 182.392 261.394 182.675 262.545 182.968C263.715 183.26 264.681 183.563 265.442 183.875C266.203 184.187 266.856 184.674 267.402 185.338C267.968 185.982 268.261 186.84 268.28 187.913C268.28 188.849 268.017 189.688 267.49 190.429C266.983 191.171 266.242 191.756 265.266 192.185C264.31 192.595 263.189 192.799 261.901 192.799Z" fill="#476AD9"/>
</svg>
