<svg width="400" height="300" viewBox="0 0 400 300" fill="none" xmlns="http://www.w3.org/2000/svg">
<rect width="400" height="300" fill="url(#paint0_linear_130_31)"/>
<path d="M168.98 89.9996H222.299L190.233 127.738H175.691C167.02 127.738 154.77 144.777 169.356 156.395C173.175 159.437 178.223 160.245 183.106 160.245H221.18L164.235 235.722H109.798L147.727 183.038V181.917C97.7638 144.926 139.151 89.9996 168.98 89.9996Z" fill="#1E1E1E"/>
<path d="M271.376 89.9996H228.717L197.76 127.752H271.376C281.801 127.752 290.252 119.301 290.252 108.876C290.252 98.4506 281.801 89.9996 271.376 89.9996Z" fill="#1E1E1E"/>
<path d="M245.327 160.218H227.584L197.382 200.235H245.327C256.378 200.235 265.336 191.277 265.336 180.227C265.336 169.176 256.378 160.218 245.327 160.218Z" fill="#1E1E1E"/>
<rect x="245" y="15" width="140" height="25" rx="12.5" fill="#1E1E1E" fillOpacity="0.1"/>
<path d="M258.1 31.07C257.613 31.07 257.173 30.9867 256.78 30.82C256.393 30.6533 256.087 30.4133 255.86 30.1C255.633 29.7867 255.517 29.4167 255.51 28.99H257.01C257.03 29.2767 257.13 29.5033 257.31 29.67C257.497 29.8367 257.75 29.92 258.07 29.92C258.397 29.92 258.653 29.8433 258.84 29.69C259.027 29.53 259.12 29.3233 259.12 29.07C259.12 28.8633 259.057 28.6933 258.93 28.56C258.803 28.4267 258.643 28.3233 258.45 28.25C258.263 28.17 258.003 28.0833 257.67 27.99C257.217 27.8567 256.847 27.7267 256.56 27.6C256.28 27.4667 256.037 27.27 255.83 27.01C255.63 26.7433 255.53 26.39 255.53 25.95C255.53 25.5367 255.633 25.1767 255.84 24.87C256.047 24.5633 256.337 24.33 256.71 24.17C257.083 24.0033 257.51 23.92 257.99 23.92C258.71 23.92 259.293 24.0967 259.74 24.45C260.193 24.7967 260.443 25.2833 260.49 25.91H258.95C258.937 25.67 258.833 25.4733 258.64 25.32C258.453 25.16 258.203 25.08 257.89 25.08C257.617 25.08 257.397 25.15 257.23 25.29C257.07 25.43 256.99 25.6333 256.99 25.9C256.99 26.0867 257.05 26.2433 257.17 26.37C257.297 26.49 257.45 26.59 257.63 26.67C257.817 26.7433 258.077 26.83 258.41 26.93C258.863 27.0633 259.233 27.1967 259.52 27.33C259.807 27.4633 260.053 27.6633 260.26 27.93C260.467 28.1967 260.57 28.5467 260.57 28.98C260.57 29.3533 260.473 29.7 260.28 30.02C260.087 30.34 259.803 30.5967 259.43 30.79C259.057 30.9767 258.613 31.07 258.1 31.07ZM263.414 26.61V29.29C263.414 29.4767 263.457 29.6133 263.544 29.7C263.637 29.78 263.79 29.82 264.004 29.82H264.654V31H263.774C262.594 31 262.004 30.4267 262.004 29.28V26.61H261.344V25.46H262.004V24.09H263.414V25.46H264.654V26.61H263.414ZM265.301 28.21C265.301 27.65 265.411 27.1533 265.631 26.72C265.857 26.2867 266.161 25.9533 266.541 25.72C266.927 25.4867 267.357 25.37 267.831 25.37C268.244 25.37 268.604 25.4533 268.911 25.62C269.224 25.7867 269.474 25.9967 269.661 26.25V25.46H271.071V31H269.661V30.19C269.481 30.45 269.231 30.6667 268.911 30.84C268.597 31.0067 268.234 31.09 267.821 31.09C267.354 31.09 266.927 30.97 266.541 30.73C266.161 30.49 265.857 30.1533 265.631 29.72C265.411 29.28 265.301 28.7767 265.301 28.21ZM269.661 28.23C269.661 27.89 269.594 27.6 269.461 27.36C269.327 27.1133 269.147 26.9267 268.921 26.8C268.694 26.6667 268.451 26.6 268.191 26.6C267.931 26.6 267.691 26.6633 267.471 26.79C267.251 26.9167 267.071 27.1033 266.931 27.35C266.797 27.59 266.731 27.8767 266.731 28.21C266.731 28.5433 266.797 28.8367 266.931 29.09C267.071 29.3367 267.251 29.5267 267.471 29.66C267.697 29.7933 267.937 29.86 268.191 29.86C268.451 29.86 268.694 29.7967 268.921 29.67C269.147 29.5367 269.327 29.35 269.461 29.11C269.594 28.8633 269.661 28.57 269.661 28.23ZM275.508 25.38C276.168 25.38 276.701 25.59 277.108 26.01C277.515 26.4233 277.718 27.0033 277.718 27.75V31H276.318V27.94C276.318 27.5 276.208 27.1633 275.988 26.93C275.768 26.69 275.468 26.57 275.088 26.57C274.701 26.57 274.395 26.69 274.168 26.93C273.948 27.1633 273.838 27.5 273.838 27.94V31H272.438V25.46H273.838V26.15C274.025 25.91 274.261 25.7233 274.548 25.59C274.841 25.45 275.161 25.38 275.508 25.38ZM278.689 28.21C278.689 27.65 278.799 27.1533 279.019 26.72C279.246 26.2867 279.553 25.9533 279.939 25.72C280.326 25.4867 280.756 25.37 281.229 25.37C281.589 25.37 281.933 25.45 282.259 25.61C282.586 25.7633 282.846 25.97 283.039 26.23V23.6H284.459V31H283.039V30.18C282.866 30.4533 282.623 30.6733 282.309 30.84C281.996 31.0067 281.633 31.09 281.219 31.09C280.753 31.09 280.326 30.97 279.939 30.73C279.553 30.49 279.246 30.1533 279.019 29.72C278.799 29.28 278.689 28.7767 278.689 28.21ZM283.049 28.23C283.049 27.89 282.983 27.6 282.849 27.36C282.716 27.1133 282.536 26.9267 282.309 26.8C282.083 26.6667 281.839 26.6 281.579 26.6C281.319 26.6 281.079 26.6633 280.859 26.79C280.639 26.9167 280.459 27.1033 280.319 27.35C280.186 27.59 280.119 27.8767 280.119 28.21C280.119 28.5433 280.186 28.8367 280.319 29.09C280.459 29.3367 280.639 29.5267 280.859 29.66C281.086 29.7933 281.326 29.86 281.579 29.86C281.839 29.86 282.083 29.7967 282.309 29.67C282.536 29.5367 282.716 29.35 282.849 29.11C282.983 28.8633 283.049 28.57 283.049 28.23ZM285.467 28.21C285.467 27.65 285.577 27.1533 285.797 26.72C286.023 26.2867 286.327 25.9533 286.707 25.72C287.093 25.4867 287.523 25.37 287.997 25.37C288.41 25.37 288.77 25.4533 289.077 25.62C289.39 25.7867 289.64 25.9967 289.827 26.25V25.46H291.237V31H289.827V30.19C289.647 30.45 289.397 30.6667 289.077 30.84C288.763 31.0067 288.4 31.09 287.987 31.09C287.52 31.09 287.093 30.97 286.707 30.73C286.327 30.49 286.023 30.1533 285.797 29.72C285.577 29.28 285.467 28.7767 285.467 28.21ZM289.827 28.23C289.827 27.89 289.76 27.6 289.627 27.36C289.493 27.1133 289.313 26.9267 289.087 26.8C288.86 26.6667 288.617 26.6 288.357 26.6C288.097 26.6 287.857 26.6633 287.637 26.79C287.417 26.9167 287.237 27.1033 287.097 27.35C286.963 27.59 286.897 27.8767 286.897 28.21C286.897 28.5433 286.963 28.8367 287.097 29.09C287.237 29.3367 287.417 29.5267 287.637 29.66C287.863 29.7933 288.103 29.86 288.357 29.86C288.617 29.86 288.86 29.7967 289.087 29.67C289.313 29.5367 289.493 29.35 289.627 29.11C289.76 28.8633 289.827 28.57 289.827 28.23ZM294.004 23.6V31H292.604V23.6H294.004ZM297.847 31.09C297.314 31.09 296.834 30.9733 296.407 30.74C295.981 30.5 295.644 30.1633 295.397 29.73C295.157 29.2967 295.037 28.7967 295.037 28.23C295.037 27.6633 295.161 27.1633 295.407 26.73C295.661 26.2967 296.004 25.9633 296.437 25.73C296.871 25.49 297.354 25.37 297.887 25.37C298.421 25.37 298.904 25.49 299.337 25.73C299.771 25.9633 300.111 26.2967 300.357 26.73C300.611 27.1633 300.737 27.6633 300.737 28.23C300.737 28.7967 300.607 29.2967 300.347 29.73C300.094 30.1633 299.747 30.5 299.307 30.74C298.874 30.9733 298.387 31.09 297.847 31.09ZM297.847 29.87C298.101 29.87 298.337 29.81 298.557 29.69C298.784 29.5633 298.964 29.3767 299.097 29.13C299.231 28.8833 299.297 28.5833 299.297 28.23C299.297 27.7033 299.157 27.3 298.877 27.02C298.604 26.7333 298.267 26.59 297.867 26.59C297.467 26.59 297.131 26.7333 296.857 27.02C296.591 27.3 296.457 27.7033 296.457 28.23C296.457 28.7567 296.587 29.1633 296.847 29.45C297.114 29.73 297.447 29.87 297.847 29.87ZM304.834 25.38C305.494 25.38 306.028 25.59 306.434 26.01C306.841 26.4233 307.044 27.0033 307.044 27.75V31H305.644V27.94C305.644 27.5 305.534 27.1633 305.314 26.93C305.094 26.69 304.794 26.57 304.414 26.57C304.028 26.57 303.721 26.69 303.494 26.93C303.274 27.1633 303.164 27.5 303.164 27.94V31H301.764V25.46H303.164V26.15C303.351 25.91 303.588 25.7233 303.874 25.59C304.168 25.45 304.488 25.38 304.834 25.38ZM313.526 28.11C313.526 28.31 313.512 28.49 313.486 28.65H309.436C309.469 29.05 309.609 29.3633 309.856 29.59C310.102 29.8167 310.406 29.93 310.766 29.93C311.286 29.93 311.656 29.7067 311.876 29.26H313.386C313.226 29.7933 312.919 30.2333 312.466 30.58C312.012 30.92 311.456 31.09 310.796 31.09C310.262 31.09 309.782 30.9733 309.356 30.74C308.936 30.5 308.606 30.1633 308.366 29.73C308.132 29.2967 308.016 28.7967 308.016 28.23C308.016 27.6567 308.132 27.1533 308.366 26.72C308.599 26.2867 308.926 25.9533 309.346 25.72C309.766 25.4867 310.249 25.37 310.796 25.37C311.322 25.37 311.792 25.4833 312.206 25.71C312.626 25.9367 312.949 26.26 313.176 26.68C313.409 27.0933 313.526 27.57 313.526 28.11ZM312.076 27.71C312.069 27.35 311.939 27.0633 311.686 26.85C311.432 26.63 311.122 26.52 310.756 26.52C310.409 26.52 310.116 26.6267 309.876 26.84C309.642 27.0467 309.499 27.3367 309.446 27.71H312.076ZM321.21 29.67H318.43L317.97 31H316.5L319.01 24.01H320.64L323.15 31H321.67L321.21 29.67ZM320.83 28.55L319.82 25.63L318.81 28.55H320.83ZM325.488 26.26C325.668 26.0067 325.915 25.7967 326.228 25.63C326.548 25.4567 326.912 25.37 327.318 25.37C327.792 25.37 328.218 25.4867 328.598 25.72C328.985 25.9533 329.288 26.2867 329.508 26.72C329.735 27.1467 329.848 27.6433 329.848 28.21C329.848 28.7767 329.735 29.28 329.508 29.72C329.288 30.1533 328.985 30.49 328.598 30.73C328.218 30.97 327.792 31.09 327.318 31.09C326.912 31.09 326.552 31.0067 326.238 30.84C325.932 30.6733 325.682 30.4633 325.488 30.21V33.64H324.088V25.46H325.488V26.26ZM328.418 28.21C328.418 27.8767 328.348 27.59 328.208 27.35C328.075 27.1033 327.895 26.9167 327.668 26.79C327.448 26.6633 327.208 26.6 326.948 26.6C326.695 26.6 326.455 26.6667 326.228 26.8C326.008 26.9267 325.828 27.1133 325.688 27.36C325.555 27.6067 325.488 27.8967 325.488 28.23C325.488 28.5633 325.555 28.8533 325.688 29.1C325.828 29.3467 326.008 29.5367 326.228 29.67C326.455 29.7967 326.695 29.86 326.948 29.86C327.208 29.86 327.448 29.7933 327.668 29.66C327.895 29.5267 328.075 29.3367 328.208 29.09C328.348 28.8433 328.418 28.55 328.418 28.21ZM332.266 26.26C332.446 26.0067 332.692 25.7967 333.006 25.63C333.326 25.4567 333.689 25.37 334.096 25.37C334.569 25.37 334.996 25.4867 335.376 25.72C335.762 25.9533 336.066 26.2867 336.286 26.72C336.512 27.1467 336.626 27.6433 336.626 28.21C336.626 28.7767 336.512 29.28 336.286 29.72C336.066 30.1533 335.762 30.49 335.376 30.73C334.996 30.97 334.569 31.09 334.096 31.09C333.689 31.09 333.329 31.0067 333.016 30.84C332.709 30.6733 332.459 30.4633 332.266 30.21V33.64H330.866V25.46H332.266V26.26ZM335.196 28.21C335.196 27.8767 335.126 27.59 334.986 27.35C334.852 27.1033 334.672 26.9167 334.446 26.79C334.226 26.6633 333.986 26.6 333.726 26.6C333.472 26.6 333.232 26.6667 333.006 26.8C332.786 26.9267 332.606 27.1133 332.466 27.36C332.332 27.6067 332.266 27.8967 332.266 28.23C332.266 28.5633 332.332 28.8533 332.466 29.1C332.606 29.3467 332.786 29.5367 333.006 29.67C333.232 29.7967 333.472 29.86 333.726 29.86C333.986 29.86 334.226 29.7933 334.446 29.66C334.672 29.5267 334.852 29.3367 334.986 29.09C335.126 28.8433 335.196 28.55 335.196 28.21ZM339.043 23.6V31H337.643V23.6H339.043ZM341.136 24.8C340.89 24.8 340.683 24.7233 340.516 24.57C340.356 24.41 340.276 24.2133 340.276 23.98C340.276 23.7467 340.356 23.5533 340.516 23.4C340.683 23.24 340.89 23.16 341.136 23.16C341.383 23.16 341.586 23.24 341.746 23.4C341.913 23.5533 341.996 23.7467 341.996 23.98C341.996 24.2133 341.913 24.41 341.746 24.57C341.586 24.7233 341.383 24.8 341.136 24.8ZM341.826 25.46V31H340.426V25.46H341.826ZM342.85 28.23C342.85 27.6567 342.966 27.1567 343.2 26.73C343.433 26.2967 343.756 25.9633 344.17 25.73C344.583 25.49 345.056 25.37 345.59 25.37C346.276 25.37 346.843 25.5433 347.29 25.89C347.743 26.23 348.046 26.71 348.2 27.33H346.69C346.61 27.09 346.473 26.9033 346.28 26.77C346.093 26.63 345.86 26.56 345.58 26.56C345.18 26.56 344.863 26.7067 344.63 27C344.396 27.2867 344.28 27.6967 344.28 28.23C344.28 28.7567 344.396 29.1667 344.63 29.46C344.863 29.7467 345.18 29.89 345.58 29.89C346.146 29.89 346.516 29.6367 346.69 29.13H348.2C348.046 29.73 347.743 30.2067 347.29 30.56C346.836 30.9133 346.27 31.09 345.59 31.09C345.056 31.09 344.583 30.9733 344.17 30.74C343.756 30.5 343.433 30.1667 343.2 29.74C342.966 29.3067 342.85 28.8033 342.85 28.23ZM348.865 28.21C348.865 27.65 348.975 27.1533 349.195 26.72C349.422 26.2867 349.725 25.9533 350.105 25.72C350.492 25.4867 350.922 25.37 351.395 25.37C351.808 25.37 352.168 25.4533 352.475 25.62C352.788 25.7867 353.038 25.9967 353.225 26.25V25.46H354.635V31H353.225V30.19C353.045 30.45 352.795 30.6667 352.475 30.84C352.162 31.0067 351.798 31.09 351.385 31.09C350.918 31.09 350.492 30.97 350.105 30.73C349.725 30.49 349.422 30.1533 349.195 29.72C348.975 29.28 348.865 28.7767 348.865 28.21ZM353.225 28.23C353.225 27.89 353.158 27.6 353.025 27.36C352.892 27.1133 352.712 26.9267 352.485 26.8C352.258 26.6667 352.015 26.6 351.755 26.6C351.495 26.6 351.255 26.6633 351.035 26.79C350.815 26.9167 350.635 27.1033 350.495 27.35C350.362 27.59 350.295 27.8767 350.295 28.21C350.295 28.5433 350.362 28.8367 350.495 29.09C350.635 29.3367 350.815 29.5267 351.035 29.66C351.262 29.7933 351.502 29.86 351.755 29.86C352.015 29.86 352.258 29.7967 352.485 29.67C352.712 29.5367 352.892 29.35 353.025 29.11C353.158 28.8633 353.225 28.57 353.225 28.23ZM357.633 26.61V29.29C357.633 29.4767 357.676 29.6133 357.763 29.7C357.856 29.78 358.009 29.82 358.223 29.82H358.873V31H357.993C356.813 31 356.223 30.4267 356.223 29.28V26.61H355.563V25.46H356.223V24.09H357.633V25.46H358.873V26.61H357.633ZM360.589 24.8C360.343 24.8 360.136 24.7233 359.969 24.57C359.809 24.41 359.729 24.2133 359.729 23.98C359.729 23.7467 359.809 23.5533 359.969 23.4C360.136 23.24 360.343 23.16 360.589 23.16C360.836 23.16 361.039 23.24 361.199 23.4C361.366 23.5533 361.449 23.7467 361.449 23.98C361.449 24.2133 361.366 24.41 361.199 24.57C361.039 24.7233 360.836 24.8 360.589 24.8ZM361.279 25.46V31H359.879V25.46H361.279ZM365.123 31.09C364.589 31.09 364.109 30.9733 363.683 30.74C363.256 30.5 362.919 30.1633 362.673 29.73C362.433 29.2967 362.313 28.7967 362.313 28.23C362.313 27.6633 362.436 27.1633 362.683 26.73C362.936 26.2967 363.279 25.9633 363.713 25.73C364.146 25.49 364.629 25.37 365.163 25.37C365.696 25.37 366.179 25.49 366.613 25.73C367.046 25.9633 367.386 26.2967 367.633 26.73C367.886 27.1633 368.013 27.6633 368.013 28.23C368.013 28.7967 367.883 29.2967 367.623 29.73C367.369 30.1633 367.023 30.5 366.583 30.74C366.149 30.9733 365.663 31.09 365.123 31.09ZM365.123 29.87C365.376 29.87 365.613 29.81 365.833 29.69C366.059 29.5633 366.239 29.3767 366.373 29.13C366.506 28.8833 366.573 28.5833 366.573 28.23C366.573 27.7033 366.433 27.3 366.153 27.02C365.879 26.7333 365.543 26.59 365.143 26.59C364.743 26.59 364.406 26.7333 364.133 27.02C363.866 27.3 363.733 27.7033 363.733 28.23C363.733 28.7567 363.863 29.1633 364.123 29.45C364.389 29.73 364.723 29.87 365.123 29.87ZM372.11 25.38C372.77 25.38 373.303 25.59 373.71 26.01C374.116 26.4233 374.32 27.0033 374.32 27.75V31H372.92V27.94C372.92 27.5 372.81 27.1633 372.59 26.93C372.37 26.69 372.07 26.57 371.69 26.57C371.303 26.57 370.996 26.69 370.77 26.93C370.55 27.1633 370.44 27.5 370.44 27.94V31H369.04V25.46H370.44V26.15C370.626 25.91 370.863 25.7233 371.15 25.59C371.443 25.45 371.763 25.38 372.11 25.38Z" fill="#1E1E1E"/>
<defs>
<linearGradient id="paint0_linear_130_31" x1="0" y1="0" x2="400" y2="300" gradientUnits="userSpaceOnUse">
<stop stop-color="#F9F06A"/>
<stop offset="1" stop-color="#FED454"/>
</linearGradient>
</defs>
</svg>
