<svg width="400" height="300" viewBox="0 0 400 300" fill="none" xmlns="http://www.w3.org/2000/svg">
<rect width="400" height="300" fill="#1E1E1E"/>
<path d="M143.783 151.653H150.126C150.126 151.653 150.126 151.767 150.126 151.997C150.126 152.837 149.935 153.385 149.553 153.64C149.349 153.793 148.852 153.907 148.063 153.984L140.535 177.714H137.134L131.86 161.206L126.205 177.714H122.766L115.734 154.06L113.594 153.831C113.442 152.379 113.913 151.653 115.008 151.653H122.957V151.959C122.957 153.156 122.46 153.805 121.466 153.907L120.167 153.984L125.135 172.708L131.211 154.175H134.038L139.465 172.785L145.044 154.06L142.331 153.831C142.178 152.379 142.662 151.653 143.783 151.653ZM169.345 176.186C169.345 177.587 168.415 178.287 166.555 178.287C164.721 178.287 163.587 177.587 163.154 176.186C161.499 177.587 159.69 178.287 157.728 178.287C155.767 178.287 154.251 177.829 153.181 176.912C152.111 175.969 151.576 174.683 151.576 173.052C151.576 171.422 152.187 170.072 153.41 169.002C154.658 167.932 156.658 167.397 159.41 167.397C160.607 167.397 161.779 167.498 162.925 167.702V165.562C162.925 162.327 161.664 160.709 159.142 160.709C158.123 160.709 157.308 161.053 156.696 161.741C156.11 162.429 155.792 163.295 155.741 164.34C154.875 164.416 154.149 164.263 153.563 163.881C153.002 163.499 152.722 162.913 152.722 162.123C152.722 160.951 153.321 159.983 154.518 159.219C155.741 158.455 157.384 158.073 159.448 158.073C161.537 158.073 163.282 158.633 164.683 159.754C166.11 160.875 166.823 162.735 166.823 165.333V175.88L169.345 176.186ZM162.925 170.377C161.906 169.944 160.785 169.728 159.562 169.728C158.365 169.728 157.422 169.982 156.735 170.492C156.047 171.001 155.703 171.727 155.703 172.67C155.703 173.587 155.97 174.3 156.505 174.81C157.04 175.319 157.906 175.574 159.104 175.574C160.327 175.574 161.6 175.103 162.925 174.16V170.377ZM179.268 177.714H171.243V177.408C171.243 176.797 171.332 176.389 171.511 176.186C171.842 175.778 172.262 175.549 172.772 175.498L174.109 175.421V153.678L172.428 153.525C171.612 153.423 171.205 152.723 171.205 151.424L178.007 150.659V175.345L180.72 175.574C180.873 177.001 180.389 177.714 179.268 177.714ZM190.948 177.714H182.923V177.408C182.923 176.797 183.013 176.389 183.191 176.186C183.522 175.778 183.942 175.549 184.452 175.498L185.789 175.421V153.678L184.108 153.525C183.293 153.423 182.885 152.723 182.885 151.424L189.687 150.659V175.345L192.4 175.574C192.553 177.001 192.069 177.714 190.948 177.714ZM198.693 168.084V168.81C198.693 170.925 199.1 172.543 199.915 173.664C200.731 174.784 202.081 175.345 203.966 175.345C205.877 175.345 207.698 174.657 209.43 173.281C209.863 173.587 210.08 174.046 210.08 174.657C210.08 175.472 209.379 176.287 207.978 177.103C206.577 177.892 204.896 178.287 202.934 178.287C200.31 178.287 198.259 177.498 196.782 175.918C195.33 174.313 194.604 171.88 194.604 168.619C194.604 165.359 195.432 162.786 197.088 160.9C198.743 159.015 200.82 158.073 203.316 158.073C205.838 158.073 207.673 158.824 208.819 160.327C209.965 161.83 210.526 163.728 210.5 166.021V168.084H198.693ZM203.202 160.709C200.883 160.709 199.457 162.403 198.922 165.792H206.641C206.564 162.403 205.418 160.709 203.202 160.709ZM218.998 160.977V171.829C218.998 174.122 219.711 175.268 221.138 175.268C222.055 175.268 222.832 175.154 223.469 174.925C224.106 174.67 224.832 174.224 225.647 173.587C225.774 173.613 225.927 173.765 226.106 174.046C226.284 174.326 226.373 174.619 226.373 174.925C226.373 175.816 225.711 176.606 224.386 177.294C223.061 177.956 221.711 178.287 220.335 178.287C218.297 178.287 216.909 177.714 216.17 176.568C215.457 175.421 215.1 173.829 215.1 171.791V160.977H212.081C212.081 159.423 212.604 158.646 213.648 158.646H215.1V153.907L218.998 153.334V158.646H225.991C226.042 158.977 226.004 159.334 225.876 159.716C225.673 160.506 225.252 160.926 224.615 160.977H218.998ZM249.111 177.714H239.138V177.408C239.138 176.517 239.405 175.931 239.94 175.651C240.144 175.523 240.373 175.46 240.628 175.46L243.035 175.383V158.149L240.552 158.952C239.966 159.13 239.456 158.977 239.023 158.493C238.616 157.983 238.424 157.55 238.45 157.194L243.8 154.175C244.309 153.895 244.882 153.755 245.519 153.755C246.436 153.755 246.895 154.328 246.895 155.474V175.307L250.602 175.536C250.755 176.988 250.258 177.714 249.111 177.714ZM262.13 156.391C258.742 156.391 257.048 159.729 257.048 166.403C257.048 169.689 257.468 172.059 258.309 173.511C259.15 174.937 260.424 175.651 262.13 175.651C263.837 175.651 265.06 174.899 265.799 173.396C266.538 171.893 266.907 169.486 266.907 166.174C266.907 162.862 266.525 160.404 265.761 158.799C264.996 157.194 263.786 156.391 262.13 156.391ZM262.054 178.287C259.175 178.287 256.984 177.256 255.481 175.192C254.004 173.129 253.265 170.122 253.265 166.174C253.265 162.2 254.004 159.155 255.481 157.041C256.984 154.926 259.201 153.831 262.13 153.755C267.837 153.602 270.69 157.652 270.69 165.906C270.69 174.16 267.811 178.287 262.054 178.287ZM284.04 177.714H274.067V177.408C274.067 176.517 274.334 175.931 274.869 175.651C275.073 175.523 275.302 175.46 275.557 175.46L277.965 175.383V158.149L275.481 158.952C274.895 159.13 274.385 158.977 273.952 158.493C273.545 157.983 273.354 157.55 273.379 157.194L278.729 154.175C279.238 153.895 279.812 153.755 280.448 153.755C281.366 153.755 281.824 154.328 281.824 155.474V175.307L285.531 175.536C285.684 176.988 285.187 177.714 284.04 177.714Z" fill="white"/>
<path d="M137.219 127.275C164.86 91.0997 218.741 90.7175 247.4 127.275C247.4 127.275 223.071 108.735 193.52 108.336C163.969 107.937 137.219 127.275 137.219 127.275Z" fill="white"/>
<path d="M250.518 114.266C262.819 136.335 255.547 142.916 235.3 127.317C235.3 127.317 246.39 133.139 250.649 129.846C254.909 126.553 250.518 114.266 250.518 114.266Z" fill="white"/>
</svg>
